<svg width="423" height="382" viewBox="0 0 423 382" fill="none" xmlns="http://www.w3.org/2000/svg">
<path d="M201.835 239.814C201.835 196.627 201.835 153.436 201.835 110.242C201.835 99.1759 201.879 99.0306 214.003 99.181C238.903 99.482 263.893 98.766 288.694 100.592C357.715 105.682 416.153 163.593 420.732 228.286C423.463 260.114 414.498 291.861 395.321 318.27C376.144 344.679 347.905 364.167 315.28 373.505C301.658 377.07 287.626 379.089 273.489 379.519C252.291 380.515 230.999 379.596 209.74 379.954C203.365 380.063 201.718 378.045 201.746 372.354C201.957 328.165 201.868 283.992 201.835 239.814ZM382.239 301.134C383.625 299.58 384.92 297.958 386.119 296.273C394.625 282.127 399.694 266.4 400.964 250.211C402.506 233.919 400.519 217.503 395.121 201.947C389.724 186.39 381.027 172.013 369.552 159.677C358.077 147.341 344.06 137.3 328.34 130.154C312.62 123.009 295.522 118.906 278.067 118.092C263.599 117.267 249.031 117.978 231.93 117.978L382.239 301.134ZM336.783 283.006C300.352 282.794 263.921 282.918 227.49 282.856C223.055 282.856 221.431 284.63 221.436 288.61C221.495 310.919 221.486 333.229 221.409 355.538C221.409 359.995 223.57 361.624 228.16 361.521C235.228 361.36 242.307 361.453 249.386 361.521C270.9 361.728 292.358 361.78 313.057 354.88C335.537 347.632 355.435 334.703 370.548 317.524L336.783 283.006ZM223.088 137.839C222.387 139.485 221.845 141.186 221.47 142.923C221.42 181.436 221.47 219.948 221.359 258.466C221.359 263.525 223.853 264.531 228.67 264.51C258.305 264.381 287.94 264.51 317.581 264.464C319.798 264.464 322.065 264.043 326.356 263.613L223.088 137.839Z" stroke="white" stroke-width="3" stroke-miterlimit="10"/>
<path d="M221.471 275.209C221.471 280.916 219.852 282.918 213.477 282.809C192.229 282.451 170.937 283.37 149.728 282.374C135.59 281.944 121.559 279.925 107.936 276.36C75.3137 267.023 47.076 247.539 27.8982 221.133C8.7204 194.727 -0.24747 162.983 2.47918 131.156C7.05801 66.4691 65.4686 8.55248 134.517 3.46279C159.302 1.63652 184.308 2.3525 209.209 2.02564C221.332 1.87518 221.371 2.02564 221.376 13.087C221.376 56.2776 221.376 99.4682 221.376 142.659C221.36 186.863 221.271 231.036 221.471 275.209ZM191.303 20.8487C174.202 20.8487 159.634 20.1379 145.166 20.9628C127.708 21.7719 110.605 25.871 94.881 33.0144C79.1567 40.1579 65.135 50.1987 53.6559 62.5353C42.1769 74.8719 33.4767 89.2503 28.0768 104.809C22.6769 120.368 20.6883 136.787 22.2302 153.082C23.5007 169.271 28.5694 184.998 37.0754 199.143C38.2729 200.829 39.5682 202.452 40.9558 204.005L191.303 20.8487ZM110.165 257.745C130.864 264.645 152.322 264.593 173.836 264.386C180.915 264.318 187.994 264.225 195.062 264.386C199.652 264.49 201.83 262.861 201.814 258.404C201.725 236.101 201.716 213.792 201.786 191.475C201.786 187.496 200.151 185.711 195.733 185.721C159.301 185.784 122.87 185.659 86.4392 185.872C83.3628 186 80.462 187.249 78.357 189.353C69.6095 199.392 61.3555 209.805 52.6745 220.405C67.7892 237.579 87.687 250.502 110.165 257.745ZM96.8608 166.483C101.151 166.914 103.396 167.329 105.636 167.334C135.276 167.334 164.911 167.251 194.546 167.381C199.364 167.381 201.875 166.395 201.858 161.337C201.742 122.819 201.797 84.3064 201.747 45.7939C201.372 44.057 200.83 42.3552 200.129 40.7094L96.8608 166.483Z" stroke="white" stroke-width="3" stroke-miterlimit="10"/>
</svg>
