<svg width="241" height="38" viewBox="0 0 241 38" fill="none" xmlns="http://www.w3.org/2000/svg">
<g clip-path="url(#clip0_196_2841)">
<path d="M0.5 25.0432V0.932098H8.41154C15.6752 0.932098 20.5966 5.7963 20.5966 13.0062C20.5966 20.2161 15.75 25.0432 8.54859 25.0432H0.5ZM3.80167 3.9321V22.0062H8.31187C13.7316 22.0062 17.1578 18.537 17.1578 13.0062C17.1578 7.47531 13.7316 3.9321 8.17482 3.9321H3.80167Z" fill="white"/>
<path d="M33.6789 11.4753H32.271C29.2808 11.4753 27.4244 13.2778 27.4244 16.4136V25.0556H24.2598V8.77162H27.225L27.4244 11.2408C28.0972 9.53705 29.7418 8.40125 31.9969 8.40125C32.57 8.40125 33.0434 8.46297 33.6789 8.59878V11.463V11.4753Z" fill="white"/>
<path d="M33.9155 23.1049C33.9155 21.8086 35.0244 20.7346 36.3451 20.7346C37.6657 20.7346 38.7372 21.7963 38.7372 23.1049C38.7372 24.4136 37.6283 25.4383 36.3451 25.4383C35.0618 25.4383 33.9155 24.3765 33.9155 23.1049Z" fill="white"/>
<path d="M42.2632 25.0432L51.1465 0.932098H54.8095L63.7302 25.0432H60.2666L58.0738 19.0432H47.8449L45.6894 25.0432H42.2632ZM48.8541 16.2037H57.102L53.3643 6.12963C53.2023 5.66049 53.0279 5.09259 52.9656 4.73457C52.9033 5.0679 52.7288 5.6358 52.5669 6.12963L48.8665 16.2037H48.8541Z" fill="white"/>
<path d="M66.4214 25.0062V0.5H69.586V11.2407C70.6326 9.47531 72.6136 8.27778 75.1677 8.27778C79.3789 8.27778 81.3972 10.9074 81.3972 15.0802V25.0556H78.2326V15.784C78.2326 12.4877 76.6503 11.1543 74.2955 11.1543C71.2306 11.1543 69.586 13.3519 69.586 16.1543V25.0309H66.4214V25.0062Z" fill="white"/>
<path d="M85.7703 25.0432V8.73458H88.5985L88.8975 10.8704C89.7447 9.33952 91.489 8.26544 93.8064 8.26544C96.3605 8.26544 98.1796 9.53705 99.0268 11.5617C99.7992 9.5247 101.78 8.26544 104.347 8.26544C108.122 8.26544 110.402 10.5988 110.402 14.3642V25.0309H107.3V15.142C107.3 12.5741 105.854 11.1049 103.637 11.1049C101.244 11.1049 99.6622 12.7716 99.6622 15.3766V25.0432H96.535V15.1049C96.535 12.537 95.1271 11.142 92.8969 11.142C90.5047 11.142 88.9224 12.7716 88.9224 15.3766V25.0432H85.7578H85.7703Z" fill="white"/>
<path d="M113.704 16.9074C113.704 11.8087 116.968 8.26544 121.752 8.26544C126.537 8.26544 129.489 11.463 129.489 16.3025V17.4753L116.769 17.5124C117.005 20.9445 118.824 22.8457 121.952 22.8457C124.406 22.8457 126.026 21.8457 126.561 19.9815H129.527C128.717 23.4877 125.963 25.4506 121.889 25.4506C117.043 25.4506 113.716 21.9815 113.716 16.9074H113.704ZM116.831 15.4012H126.325C126.325 12.6975 124.543 10.8951 121.752 10.8951C118.961 10.8951 117.242 12.5247 116.843 15.4012H116.831Z" fill="white"/>
<path d="M134.336 25.0432V11.3765H131.109V8.74691H134.336V3.6358H137.5V8.73457H140.727V11.3642H137.5V25.0432H134.336Z" fill="white"/>
<path d="M153.274 25.0432V0.932098H161.185C168.449 0.932098 173.37 5.7963 173.37 13.0062C173.37 20.2161 168.524 25.0432 161.323 25.0432H153.274ZM156.576 3.9321V22.0062H161.086C166.506 22.0062 169.932 18.537 169.932 13.0062C169.932 7.47531 166.506 3.9321 160.949 3.9321H156.576Z" fill="white"/>
<path d="M176.498 2.79629C176.498 1.62345 177.444 0.734558 178.578 0.734558C179.712 0.734558 180.671 1.63579 180.671 2.79629C180.671 3.95678 179.724 4.85802 178.578 4.85802C177.432 4.85802 176.498 3.91974 176.498 2.79629ZM177.033 8.73456H180.198V25.0432H177.033V8.73456Z" fill="white"/>
<path d="M184.845 25.0432V0.5H188.01V25.0432H184.845Z" fill="white"/>
<path d="M192.657 25.0432V0.5H195.821V11.537C196.893 9.40123 199.123 8.26543 201.814 8.26543C206.524 8.26543 209.352 11.9321 209.352 16.9691C209.352 22.0062 206.387 25.4383 201.615 25.4383C199.023 25.4383 196.831 24.3025 195.759 22.0679L195.522 25.0309H192.657V25.0432ZM201.042 22.6111C204.269 22.6111 206.187 20.2037 206.187 16.8457C206.187 13.4877 204.269 11.1049 201.042 11.1049C197.815 11.1049 195.859 13.5123 195.859 16.8457C195.859 20.179 197.815 22.6111 201.042 22.6111Z" fill="white"/>
<path d="M211.769 16.9074C211.769 11.8087 215.033 8.26544 219.818 8.26544C224.602 8.26544 227.555 11.463 227.555 16.3025V17.4753L214.834 17.5124C215.071 20.9445 216.89 22.8457 220.017 22.8457C222.471 22.8457 224.091 21.8457 224.627 19.9815H227.592C226.782 23.4877 224.029 25.4506 219.955 25.4506C215.108 25.4506 211.781 21.9815 211.781 16.9074H211.769ZM214.896 15.4012H224.39C224.39 12.6975 222.608 10.8951 219.818 10.8951C217.027 10.8951 215.307 12.5247 214.909 15.4012H214.896Z" fill="white"/>
<path d="M240.5 11.4753H239.092C236.102 11.4753 234.246 13.2778 234.246 16.4136V25.0556H231.081V8.77162H234.046L234.246 11.2408C234.918 9.53705 236.563 8.40125 238.818 8.40125C239.391 8.40125 239.865 8.46297 240.5 8.59878V11.463V11.4753Z" fill="white"/>
<path d="M0.5 37.3642V29.0062H5.64562V30.0432H1.64624V32.6605H5.24692V33.6605H1.64624V36.3025H5.64562V37.3519H0.5V37.3642Z" fill="#EAEAEA"/>
<path d="M8.63569 35.7222C8.63569 36.3025 9.08421 36.6481 9.80684 36.6481C10.5793 36.6481 11.0154 36.3395 11.0154 35.821C11.0154 35.4383 10.8285 35.2037 10.2305 35.0556L9.22126 34.821C8.21208 34.5741 7.72617 34.0802 7.72617 33.2531C7.72617 32.216 8.61077 31.5494 9.86914 31.5494C11.1275 31.5494 11.9374 32.2407 11.9623 33.3148H10.9157C10.8908 32.7469 10.5046 32.3889 9.84422 32.3889C9.18389 32.3889 8.77274 32.6852 8.77274 33.2037C8.77274 33.5864 9.04684 33.8457 9.6075 33.9815L10.6167 34.2284C11.5885 34.463 12.0619 34.8951 12.0619 35.7469C12.0619 36.821 11.1275 37.5 9.76947 37.5C8.41142 37.5 7.57666 36.7963 7.57666 35.7222H8.62323H8.63569Z" fill="#EAEAEA"/>
<path d="M14.716 37.3642V32.6235H13.5947V31.7099H14.716V29.9445H15.8124V31.7099H16.9338V32.6235H15.8124V37.3642H14.716Z" fill="#EAEAEA"/>
<path d="M18.416 34.537C18.416 32.7716 19.5498 31.5494 21.2069 31.5494C22.8639 31.5494 23.8856 32.6605 23.8856 34.3395V34.7469H19.4751C19.5623 35.9444 20.1852 36.6111 21.2692 36.6111C22.1164 36.6111 22.6771 36.2654 22.8639 35.6111H23.8856C23.6115 36.821 22.6521 37.5123 21.2318 37.5123C19.5498 37.5123 18.3911 36.3148 18.3911 34.5494L18.416 34.537ZM19.5 34.0185H22.7892C22.7892 33.0802 22.1662 32.463 21.2069 32.463C20.2475 32.463 19.6495 33.0309 19.5 34.0185Z" fill="#EAEAEA"/>
<path d="M26.5022 37.3642V32.6235H25.3809V31.7099H26.5022V29.9445H27.5986V31.7099H28.7199V32.6235H27.5986V37.3642H26.5022Z" fill="#EAEAEA"/>
<path d="M30.4395 29.6481C30.4395 29.2407 30.7634 28.9321 31.1621 28.9321C31.5608 28.9321 31.8847 29.2407 31.8847 29.6481C31.8847 30.0556 31.5608 30.3642 31.1621 30.3642C30.7634 30.3642 30.4395 30.0432 30.4395 29.6481ZM30.6263 31.7099H31.7227V37.3642H30.6263V31.7099Z" fill="#EAEAEA"/>
<path d="M34.2644 37.3642V28.858H35.3608V34.3766L37.89 31.7222H39.2605L37.0802 33.9815L39.2481 37.3766H37.9897L36.3202 34.7593L35.3484 35.7593V37.3642H34.252H34.2644Z" fill="#EAEAEA"/>
<path d="M45.0537 34.2901C45.0537 33.3766 45.8511 32.5864 46.7855 32.5864C47.72 32.5864 48.4924 33.3766 48.4924 34.2901C48.4924 35.2037 47.7075 35.9691 46.7855 35.9691C45.8636 35.9691 45.0537 35.2037 45.0537 34.2901Z" fill="#EAEAEA"/>
<path d="M56.3044 34.3766V37.3642H55.1582V29.0062H58.435C60.092 29.0062 61.151 30.0803 61.151 31.6852C61.151 33.2901 60.0796 34.3766 58.435 34.3766H56.3044ZM56.3044 30.0185V33.3642H58.1982C59.332 33.3642 59.955 32.7099 59.955 31.6729C59.955 30.6358 59.3071 30.0185 58.2356 30.0185H56.3044Z" fill="#EAEAEA"/>
<path d="M63.2192 37.3642V28.858H64.3156V37.3642H63.2192Z" fill="#EAEAEA"/>
<path d="M66.583 35.7839C66.583 34.7469 67.3679 34.0926 68.7011 33.9938L70.4952 33.858V33.6975C70.4952 32.7469 69.922 32.4136 69.1496 32.4136C68.2276 32.4136 67.7043 32.821 67.7043 33.5H66.745C66.745 32.3148 67.7292 31.5494 69.1994 31.5494C70.6696 31.5494 71.5667 32.2901 71.5667 33.821V37.3642H70.6322L70.5201 36.4506C70.2335 37.0926 69.4486 37.5 68.5266 37.5C67.3056 37.5 66.583 36.821 66.583 35.7839ZM70.5201 34.9197V34.6235L69.0624 34.7346C68.0906 34.8333 67.6919 35.1914 67.6919 35.7469C67.6919 36.3518 68.1404 36.6481 68.8506 36.6481C69.8847 36.6481 70.5201 35.9815 70.5201 34.9197Z" fill="#EAEAEA"/>
<path d="M74.6069 35.7222C74.6069 36.3025 75.0554 36.6481 75.778 36.6481C76.5505 36.6481 76.9866 36.3395 76.9866 35.821C76.9866 35.4383 76.7997 35.2037 76.2016 35.0556L75.1925 34.821C74.1833 34.5741 73.6974 34.0802 73.6974 33.2531C73.6974 32.216 74.582 31.5494 75.8403 31.5494C77.0987 31.5494 77.9085 32.2407 77.9335 33.3148H76.8869C76.862 32.7469 76.4757 32.3889 75.8154 32.3889C75.1551 32.3889 74.7439 32.6852 74.7439 33.2037C74.7439 33.5864 75.018 33.8457 75.5787 33.9815L76.5879 34.2284C77.5597 34.463 78.0331 34.8951 78.0331 35.7469C78.0331 36.821 77.0987 37.5 75.7407 37.5C74.3826 37.5 73.5479 36.7963 73.5479 35.7222H74.5944H74.6069Z" fill="#EAEAEA"/>
<path d="M80.6868 37.3642V32.6235H79.5654V31.7099H80.6868V29.9445H81.7832V31.7099H82.9045V32.6235H81.7832V37.3642H80.6868Z" fill="#EAEAEA"/>
<path d="M84.6362 29.6481C84.6362 29.2407 84.9602 28.9321 85.3589 28.9321C85.7576 28.9321 86.0815 29.2407 86.0815 29.6481C86.0815 30.0556 85.7576 30.3642 85.3589 30.3642C84.9602 30.3642 84.6362 30.0432 84.6362 29.6481ZM84.8231 31.7099H85.9195V37.3642H84.8231V31.7099Z" fill="#EAEAEA"/>
<path d="M88.4612 37.3642V28.858H89.5576V34.3766L92.0868 31.7222H93.4573L91.277 33.9815L93.4448 37.3766H92.1865L90.5169 34.7593L89.5451 35.7593V37.3642H88.4487H88.4612Z" fill="#EAEAEA"/>
<path d="M99.251 34.2901C99.251 33.3766 100.048 32.5864 100.983 32.5864C101.917 32.5864 102.69 33.3766 102.69 34.2901C102.69 35.2037 101.905 35.9691 100.983 35.9691C100.061 35.9691 99.251 35.2037 99.251 34.2901Z" fill="#EAEAEA"/>
<path d="M109.355 37.3642V29.0062H112.545C114.352 29.0062 115.423 29.9568 115.423 31.5124C115.423 32.6729 114.837 33.5 113.791 33.8334L115.51 37.3642H114.239L112.67 34.0556H110.514V37.3642H109.368H109.355ZM110.502 33.0556H112.557C113.616 33.0556 114.227 32.4877 114.227 31.5247C114.227 30.5617 113.592 30.0185 112.545 30.0185H110.502V33.0432V33.0556Z" fill="#EAEAEA"/>
<path d="M116.706 34.537C116.706 32.7716 117.84 31.5494 119.497 31.5494C121.154 31.5494 122.176 32.6605 122.176 34.3395V34.7469H117.765C117.852 35.9444 118.475 36.6111 119.559 36.6111C120.406 36.6111 120.967 36.2654 121.154 35.6111H122.176C121.902 36.821 120.942 37.5123 119.522 37.5123C117.84 37.5123 116.681 36.3148 116.681 34.5494L116.706 34.537ZM117.79 34.0185H121.079C121.079 33.0802 120.456 32.463 119.497 32.463C118.538 32.463 117.94 33.0309 117.79 34.0185Z" fill="#EAEAEA"/>
<path d="M124.132 37.3642V28.858H125.228V34.3766L127.757 31.7222H129.128L126.947 33.9815L129.115 37.3766H127.857L126.187 34.7593L125.216 35.7593V37.3642H124.119H124.132Z" fill="#EAEAEA"/>
<path d="M133.115 31.5617C134.822 31.5617 136.08 32.784 136.08 34.537C136.08 36.2901 134.822 37.5124 133.115 37.5124C131.408 37.5124 130.137 36.2901 130.137 34.537C130.137 32.784 131.396 31.5617 133.115 31.5617ZM133.115 36.537C134.211 36.537 134.984 35.7222 134.984 34.537C134.984 33.3519 134.211 32.537 133.115 32.537C132.019 32.537 131.246 33.3519 131.246 34.537C131.246 35.7222 132.006 36.537 133.115 36.537Z" fill="#EAEAEA"/>
<path d="M137.986 37.3642V31.7099H138.983L139.095 32.5741C139.457 31.9321 140.179 31.5494 140.989 31.5494C142.497 31.5494 143.182 32.463 143.182 33.9074V37.3642H142.085V34.1543C142.085 33.0062 141.55 32.5494 140.715 32.5494C139.693 32.5494 139.095 33.2778 139.095 34.3765V37.3642H137.999H137.986Z" fill="#EAEAEA"/>
<path d="M145.911 35.7222C145.911 36.3025 146.359 36.6481 147.082 36.6481C147.854 36.6481 148.29 36.3395 148.29 35.821C148.29 35.4383 148.103 35.2037 147.505 35.0556L146.496 34.821C145.487 34.5741 145.001 34.0802 145.001 33.2531C145.001 32.216 145.886 31.5494 147.144 31.5494C148.402 31.5494 149.212 32.2407 149.237 33.3148H148.191C148.166 32.7469 147.779 32.3889 147.119 32.3889C146.459 32.3889 146.048 32.6852 146.048 33.2037C146.048 33.5864 146.322 33.8457 146.882 33.9815L147.892 34.2284C148.863 34.463 149.337 34.8951 149.337 35.7469C149.337 36.821 148.402 37.5 147.044 37.5C145.686 37.5 144.852 36.7963 144.852 35.7222H145.898H145.911Z" fill="#EAEAEA"/>
<path d="M151.766 37.3642V32.6235H150.645V31.7099H151.766V29.9445H152.863V31.7099H153.984V32.6235H152.863V37.3642H151.766Z" fill="#EAEAEA"/>
<path d="M158.93 32.6605H158.444C157.41 32.6605 156.762 33.2901 156.762 34.3765V37.3642H155.666V31.7222H156.688L156.762 32.5741C156.999 31.9815 157.572 31.5864 158.345 31.5864C158.544 31.5864 158.706 31.6111 158.93 31.6605V32.6605Z" fill="#EAEAEA"/>
<path d="M165.683 31.7099V37.3642H164.699L164.587 36.5123C164.263 37.1049 163.503 37.5123 162.655 37.5123C161.322 37.5123 160.575 36.6235 160.575 35.2407V31.7222H161.671V34.8827C161.671 36.0926 162.194 36.5617 163.042 36.5617C164.051 36.5617 164.599 35.9321 164.599 34.7099V31.7222H165.683V31.7099ZM161.509 30.1914C161.509 29.8333 161.808 29.5247 162.169 29.5247C162.531 29.5247 162.842 29.8333 162.842 30.1914C162.842 30.5494 162.531 30.858 162.169 30.858C161.808 30.858 161.509 30.5617 161.509 30.1914ZM163.39 30.1914C163.39 29.8333 163.689 29.5247 164.051 29.5247C164.412 29.5247 164.724 29.8333 164.724 30.1914C164.724 30.5494 164.412 30.858 164.051 30.858C163.689 30.858 163.39 30.5617 163.39 30.1914Z" fill="#EAEAEA"/>
<path d="M167.988 37.3642V28.858H169.084V34.3766L171.614 31.7222H172.984L170.804 33.9815L172.972 37.3766H171.713L170.044 34.7593L169.072 35.7593V37.3642H167.976H167.988Z" fill="#EAEAEA"/>
<path d="M175.102 37.3642V32.6235H173.981V31.7099H175.102V29.9445H176.199V31.7099H177.32V32.6235H176.199V37.3642H175.102Z" fill="#EAEAEA"/>
<path d="M178.815 29.6481C178.815 29.2407 179.139 28.9321 179.538 28.9321C179.936 28.9321 180.26 29.2407 180.26 29.6481C180.26 30.0556 179.936 30.3642 179.538 30.3642C179.139 30.3642 178.815 30.0432 178.815 29.6481ZM179.002 31.7099H180.098V37.3642H179.002V31.7099Z" fill="#EAEAEA"/>
<path d="M182.615 31.7099V30.8086C182.615 29.4259 183.387 28.858 184.422 28.858C184.633 28.858 184.87 28.858 185.094 28.9074V29.8457H184.608C183.898 29.8457 183.711 30.2037 183.711 30.821V31.7222H185.069V32.6358H183.711V37.3766H182.615V32.6358H181.78V31.7222H182.615V31.7099Z" fill="#EAEAEA"/>
<path d="M190.352 33.1914C190.352 30.6111 191.997 28.8704 194.414 28.8704C196.32 28.8704 197.778 29.9938 198.089 31.6976H196.868C196.557 30.6111 195.61 29.9568 194.389 29.9568C192.682 29.9568 191.561 31.2284 191.561 33.179C191.561 35.1297 192.682 36.4013 194.389 36.4013C195.622 36.4013 196.607 35.7469 196.918 34.7099H198.127C197.765 36.3766 196.258 37.4877 194.364 37.4877C191.959 37.4877 190.365 35.7716 190.365 33.1914H190.352Z" fill="#EAEAEA"/>
<path d="M199.896 34.537C199.896 32.7716 201.029 31.5494 202.686 31.5494C204.343 31.5494 205.365 32.6605 205.365 34.3395V34.7469H200.955C201.042 35.9444 201.665 36.6111 202.749 36.6111C203.596 36.6111 204.157 36.2654 204.343 35.6111H205.365C205.091 36.821 204.132 37.5123 202.711 37.5123C201.029 37.5123 199.871 36.3148 199.871 34.5494L199.896 34.537ZM200.979 34.0185H204.269C204.269 33.0802 203.646 32.463 202.686 32.463C201.727 32.463 201.129 33.0309 200.979 34.0185Z" fill="#EAEAEA"/>
<path d="M210.785 32.6605H210.299C209.265 32.6605 208.617 33.2901 208.617 34.3765V37.3642H207.521V31.7222H208.542L208.617 32.5741C208.854 31.9815 209.427 31.5864 210.199 31.5864C210.399 31.5864 210.561 31.6111 210.785 31.6605V32.6605Z" fill="#EAEAEA"/>
<path d="M216.005 32.6605H215.52C214.485 32.6605 213.838 33.2901 213.838 34.3765V37.3642H212.741V31.7222H213.763L213.838 32.5741C214.074 31.9815 214.647 31.5864 215.42 31.5864C215.619 31.5864 215.781 31.6111 216.005 31.6605V32.6605Z" fill="#EAEAEA"/>
<path d="M217.451 35.7839C217.451 34.7469 218.236 34.0926 219.569 33.9938L221.363 33.858V33.6975C221.363 32.7469 220.79 32.4136 220.017 32.4136C219.095 32.4136 218.572 32.821 218.572 33.5H217.613C217.613 32.3148 218.597 31.5494 220.067 31.5494C221.537 31.5494 222.434 32.2901 222.434 33.821V37.3642H221.5L221.388 36.4506C221.101 37.0926 220.316 37.5 219.394 37.5C218.173 37.5 217.451 36.821 217.451 35.7839ZM221.388 34.9197V34.6235L219.93 34.7346C218.958 34.8333 218.56 35.1914 218.56 35.7469C218.56 36.3518 219.008 36.6481 219.718 36.6481C220.752 36.6481 221.388 35.9815 221.388 34.9197Z" fill="#EAEAEA"/>
<path d="M224.901 37.3519V28.858H225.998V32.5741C226.359 31.9568 227.044 31.5494 227.929 31.5494C229.387 31.5494 230.084 32.463 230.084 33.9074V37.3642H228.988V34.1543C228.988 33.0062 228.44 32.5494 227.63 32.5494C226.571 32.5494 225.998 33.3148 225.998 34.2778V37.3519H224.901Z" fill="#EAEAEA"/>
<path d="M232.352 29.6481C232.352 29.2407 232.676 28.9321 233.074 28.9321C233.473 28.9321 233.797 29.2407 233.797 29.6481C233.797 30.0556 233.473 30.3642 233.074 30.3642C232.676 30.3642 232.352 30.0432 232.352 29.6481ZM232.538 31.7099H233.635V37.3642H232.538V31.7099Z" fill="#EAEAEA"/>
</g>
<defs>
<clipPath id="clip0_196_2841">
<rect width="240" height="37" fill="white" transform="translate(0.5 0.5)"/>
</clipPath>
</defs>
</svg>
