<svg width="46" height="42" viewBox="0 0 46 42" fill="none" xmlns="http://www.w3.org/2000/svg">
<path d="M22.046 26.0458C22.046 21.4975 22.046 16.9488 22.046 12.3997C22.046 11.2342 22.0507 11.2189 23.3275 11.2348C25.9499 11.2665 28.5818 11.1911 31.1937 11.3834C38.4628 11.9194 44.6173 18.0185 45.0995 24.8317C45.3871 28.1837 44.4429 31.5272 42.4233 34.3085C40.4036 37.0898 37.4296 39.1422 33.9937 40.1257C32.559 40.5012 31.0813 40.7138 29.5923 40.759C27.3598 40.8639 25.1174 40.7672 22.8785 40.8049C22.2071 40.8164 22.0337 40.6038 22.0367 40.0044C22.0577 35.3523 22.0483 30.7001 22.0472 26.0474M41.0467 32.5054C41.1927 32.3418 41.3291 32.1709 41.4554 31.9935C42.3512 30.5037 42.885 28.8473 43.0188 27.1424C43.1812 25.4266 42.9719 23.6977 42.4035 22.0593C41.835 20.421 40.9191 18.9069 39.7106 17.6077C38.5021 16.3085 37.0258 15.2509 35.3703 14.4984C33.7147 13.7459 31.9139 13.3138 30.0757 13.2281C28.552 13.1412 27.0177 13.2161 25.2167 13.2161L41.0473 32.5044M36.26 30.5952C32.4232 30.5728 28.5864 30.5859 24.7496 30.5794C24.2826 30.5794 24.1115 30.7662 24.1121 31.1853C24.1183 33.5349 24.1174 35.8845 24.1092 38.234C24.1092 38.7034 24.3369 38.875 24.8203 38.864C25.5646 38.8471 26.3102 38.8569 27.0557 38.864C29.3214 38.8859 31.5814 38.8914 33.7613 38.1646C36.1288 37.4014 38.2244 36.0397 39.816 34.2305L36.26 30.5952ZM24.2861 15.3066C24.2122 15.48 24.1551 15.6592 24.1156 15.8421C24.1104 19.8981 24.1156 23.9541 24.1039 28.0107C24.1039 28.5434 24.3666 28.6494 24.874 28.6472C27.995 28.6336 31.1161 28.6472 34.2377 28.6423C34.4712 28.6423 34.71 28.5981 35.1619 28.5527L24.2849 15.3061" fill="white"/>
<path d="M22.046 26.0458C22.046 21.4975 22.046 16.9488 22.046 12.3997C22.046 11.2342 22.0507 11.2189 23.3275 11.2348C25.9499 11.2665 28.5818 11.1911 31.1937 11.3834C38.4628 11.9194 44.6173 18.0185 45.0995 24.8317C45.3871 28.1837 44.4429 31.5272 42.4233 34.3085C40.4036 37.0898 37.4296 39.1422 33.9937 40.1257C32.559 40.5012 31.0813 40.7138 29.5923 40.759C27.3598 40.8639 25.1174 40.7672 22.8785 40.8049C22.2071 40.8164 22.0337 40.6038 22.0367 40.0044C22.0588 35.3506 22.0495 30.6985 22.046 26.0458ZM41.0455 32.5038C41.1915 32.3402 41.3279 32.1693 41.4542 31.9918C42.35 30.502 42.8838 28.8457 43.0176 27.1408C43.18 25.4249 42.9707 23.6961 42.4023 22.0577C41.8338 20.4193 40.9179 18.9052 39.7094 17.606C38.5009 16.3068 37.0247 15.2493 35.3691 14.4968C33.7136 13.7442 31.9128 13.3121 30.0746 13.2264C28.5508 13.1396 27.0166 13.2144 25.2155 13.2144L41.0455 32.5038ZM36.2583 30.5947C32.4215 30.5722 28.5847 30.5854 24.7479 30.5788C24.2808 30.5788 24.1098 30.7657 24.1104 31.1848C24.1166 33.5343 24.1156 35.8839 24.1074 38.2335C24.1074 38.7028 24.3351 38.8744 24.8185 38.8635C25.5629 38.8465 26.3084 38.8564 27.0539 38.8635C29.3197 38.8853 31.5796 38.8908 33.7596 38.1641C36.1271 37.4008 38.2227 36.0392 39.8143 34.2299L36.2583 30.5947ZM24.2843 15.3061C24.2104 15.4794 24.1534 15.6586 24.1139 15.8416C24.1086 19.8976 24.1139 23.9536 24.1022 28.0101C24.1022 28.5429 24.3649 28.6489 24.8722 28.6467C27.9933 28.633 31.1143 28.6467 34.236 28.6418C34.4695 28.6418 34.7083 28.5975 35.1601 28.5522L24.2843 15.3061Z" fill="white" stroke="white" stroke-miterlimit="10"/>
<path d="M24.1139 29.7734C24.1139 30.3745 23.9434 30.5854 23.272 30.5739C21.0343 30.5362 18.7919 30.6329 16.5582 30.528C15.0693 30.4828 13.5916 30.2702 12.1569 29.8947C8.72115 28.9113 5.74726 26.8593 3.72751 24.0783C1.70777 21.2974 0.763304 17.9542 1.05047 14.6023C1.53269 7.78967 7.68431 1.69009 14.9563 1.15406C17.5665 0.96172 20.2 1.03712 22.8225 1.0027C24.0993 0.986854 24.1034 1.0027 24.104 2.16765C24.104 6.71634 24.104 11.265 24.104 15.8137C24.104 20.4664 24.0935 25.1185 24.1145 29.7707M20.9368 2.98508C19.1357 2.98508 17.6015 2.91022 16.0778 2.9971C14.2392 3.08231 12.4379 3.51401 10.7819 4.26634C9.12589 5.01866 7.64917 6.07613 6.44023 7.37538C5.23129 8.67462 4.31502 10.1889 3.74632 11.8275C3.17762 13.4661 2.96819 15.1953 3.13058 16.9115C3.26438 18.6164 3.7982 20.2727 4.69403 21.7625C4.82014 21.94 4.95656 22.1109 5.10269 22.2745L20.9368 2.98508ZM12.3916 27.9342C14.5715 28.6609 16.8314 28.6555 19.0972 28.6336C19.8427 28.6265 20.5883 28.6167 21.3326 28.6336C21.816 28.6445 22.0455 28.473 22.0437 28.0036C22.0344 25.6548 22.0334 23.3052 22.0408 20.9549C22.0408 20.5358 21.8686 20.3478 21.4033 20.3489C17.5665 20.3555 13.7297 20.3424 9.89286 20.3648C9.56886 20.3783 9.26335 20.5099 9.04166 20.7314C8.12041 21.7887 7.25112 22.8854 6.33687 24.0017C7.92847 25.8109 10.0241 27.1726 12.3916 27.9358M10.9904 18.3245C11.4423 18.3698 11.6787 18.4135 11.9146 18.4141C15.0362 18.4141 18.1573 18.4053 21.2783 18.419C21.7857 18.419 22.0501 18.3152 22.0484 17.7824C22.0361 13.7259 22.042 9.66987 22.0367 5.61386C21.9972 5.43094 21.9401 5.25172 21.8662 5.07838L10.991 18.3239" fill="white"/>
<path d="M24.1139 29.7734C24.1139 30.3745 23.9434 30.5854 23.272 30.5739C21.0343 30.5362 18.7919 30.6329 16.5582 30.528C15.0693 30.4828 13.5916 30.2702 12.1569 29.8947C8.72115 28.9113 5.74726 26.8593 3.72751 24.0783C1.70777 21.2974 0.763304 17.9542 1.05047 14.6023C1.53269 7.78967 7.68431 1.69009 14.9563 1.15406C17.5665 0.96172 20.2 1.03712 22.8225 1.0027C24.0993 0.986854 24.1034 1.0027 24.104 2.16765C24.104 6.71634 24.104 11.265 24.104 15.8137C24.1022 20.4691 24.0929 25.1213 24.1139 29.7734ZM20.9368 2.98508C19.1358 2.98508 17.6015 2.91022 16.0778 2.9971C14.2392 3.08231 12.4379 3.51401 10.7819 4.26634C9.12589 5.01866 7.64917 6.07613 6.44023 7.37538C5.23129 8.67462 4.31502 10.1889 3.74632 11.8275C3.17762 13.4661 2.96819 15.1953 3.13058 16.9115C3.26438 18.6164 3.7982 20.2727 4.69403 21.7625C4.82014 21.94 4.95656 22.1109 5.10269 22.2745L20.9368 2.98508ZM12.3916 27.9342C14.5715 28.6609 16.8314 28.6555 19.0972 28.6336C19.8427 28.6265 20.5883 28.6167 21.3326 28.6336C21.816 28.6445 22.0455 28.473 22.0437 28.0036C22.0344 25.6548 22.0334 23.3052 22.0408 20.9549C22.0408 20.5358 21.8686 20.3478 21.4033 20.3489C17.5665 20.3555 13.7297 20.3424 9.89286 20.3648C9.56886 20.3783 9.26335 20.5099 9.04166 20.7314C8.12041 21.7887 7.25112 22.8854 6.33687 24.0017C7.9287 25.8103 10.0243 27.1714 12.3916 27.9342ZM10.9904 18.3228C11.4423 18.3682 11.6787 18.4119 11.9146 18.4124C15.0362 18.4124 18.1573 18.4037 21.2783 18.4174C21.7857 18.4174 22.0501 18.3135 22.0484 17.7808C22.0361 13.7242 22.042 9.66823 22.0367 5.61222C21.9972 5.4293 21.9401 5.25008 21.8662 5.07674L10.9904 18.3228Z" fill="white" stroke="white" stroke-miterlimit="10"/>
<path d="M31.1172 2.98892C31.7149 2.98903 32.2992 3.15501 32.7961 3.46588C33.2931 3.77675 33.6804 4.21855 33.9091 4.73542C34.1377 5.25229 34.1975 5.82101 34.0809 6.36969C33.9643 6.91837 33.6764 7.42236 33.2538 7.81793C32.8311 8.21351 32.2926 8.48291 31.7064 8.59208C31.1202 8.70125 30.5125 8.64527 29.9603 8.43124C29.408 8.2172 28.936 7.85472 28.6038 7.38961C28.2717 6.92451 28.0944 6.37767 28.0942 5.81824C28.0965 5.06852 28.4158 4.35013 28.9822 3.82C29.5486 3.28987 30.3162 2.99108 31.1172 2.98892" fill="white"/>
<path d="M15.1572 38.8854C14.5594 38.8854 13.9749 38.7194 13.4778 38.4086C12.9807 38.0977 12.5932 37.6558 12.3644 37.1388C12.1356 36.6218 12.0757 36.0529 12.1924 35.5041C12.309 34.9553 12.5969 34.4511 13.0197 34.0554C13.4425 33.6597 13.9811 33.3903 14.5675 33.2811C15.1539 33.1719 15.7617 33.228 16.3141 33.4421C16.8665 33.6563 17.3386 34.0189 17.6708 34.4842C18.0029 34.9495 18.1802 35.4965 18.1802 36.0561C18.1779 36.8058 17.8587 37.5242 17.2923 38.0543C16.7258 38.5844 15.9583 38.8832 15.1572 38.8854Z" fill="white"/>
</svg>
