<svg width="244" height="220" viewBox="0 0 244 220" fill="none" xmlns="http://www.w3.org/2000/svg">
<path d="M116.225 138.394C116.225 113.479 116.225 88.5619 116.225 63.6426C116.225 57.2581 116.251 57.1743 123.245 57.2611C137.611 57.4347 152.027 57.0217 166.336 58.0753C206.155 61.0116 239.869 94.4215 242.51 131.744C244.086 150.106 238.913 168.421 227.85 183.657C216.786 198.893 200.495 210.135 181.673 215.523C173.814 217.58 165.72 218.744 157.563 218.992C145.334 219.567 133.05 219.037 120.786 219.243C117.108 219.306 116.158 218.142 116.174 214.858C116.289 189.374 116.238 163.89 116.232 138.403M220.309 173.78C221.109 172.883 221.856 171.947 222.548 170.975C227.455 162.814 230.379 153.741 231.112 144.402C232.002 135.002 230.855 125.532 227.741 116.557C224.627 107.582 219.61 99.2881 212.99 92.1713C206.37 85.0544 198.283 79.2613 189.214 75.1389C180.145 71.0166 170.281 68.6498 160.211 68.1803C151.864 67.7043 143.46 68.1144 133.594 68.1144L220.312 173.774M194.088 163.316C173.071 163.193 152.053 163.265 131.035 163.229C128.477 163.229 127.54 164.253 127.543 166.548C127.577 179.419 127.572 192.29 127.527 205.16C127.527 207.732 128.774 208.671 131.422 208.612C135.5 208.519 139.584 208.573 143.668 208.612C156.079 208.731 168.459 208.761 180.401 204.78C193.37 200.599 204.849 193.14 213.568 183.229L194.088 163.316ZM128.496 79.5663C128.091 80.5159 127.779 81.4976 127.562 82.4997C127.534 104.718 127.562 126.937 127.498 149.158C127.498 152.076 128.937 152.657 131.717 152.645C148.813 152.57 165.91 152.645 183.01 152.618C184.289 152.618 185.597 152.376 188.073 152.127L128.49 79.5633" fill="white"/>
<path d="M116.225 138.394C116.225 113.479 116.225 88.5619 116.225 63.6426C116.225 57.2581 116.251 57.1743 123.245 57.2611C137.611 57.4347 152.027 57.0217 166.336 58.0753C206.155 61.0116 239.869 94.4215 242.51 131.744C244.086 150.106 238.913 168.421 227.85 183.657C216.786 198.893 200.495 210.135 181.673 215.523C173.814 217.58 165.72 218.744 157.563 218.992C145.334 219.567 133.05 219.037 120.786 219.243C117.108 219.306 116.158 218.142 116.174 214.858C116.296 189.365 116.244 163.881 116.225 138.394ZM220.303 173.771C221.103 172.874 221.85 171.938 222.541 170.966C227.449 162.805 230.373 153.732 231.106 144.393C231.995 134.993 230.849 125.523 227.735 116.548C224.621 107.573 219.604 99.2791 212.984 92.1623C206.364 85.0454 198.277 79.2523 189.208 75.13C180.139 71.0076 170.274 68.6408 160.205 68.1713C151.858 67.6954 143.453 68.1054 133.587 68.1054L220.303 173.771ZM194.079 163.313C173.061 163.19 152.043 163.262 131.026 163.226C128.467 163.226 127.53 164.25 127.534 166.545C127.568 179.416 127.562 192.287 127.518 205.157C127.518 207.729 128.765 208.668 131.413 208.609C135.49 208.516 139.574 208.57 143.658 208.609C156.07 208.728 168.449 208.758 180.391 204.777C193.36 200.596 204.839 193.137 213.558 183.226L194.079 163.313ZM128.487 79.5633C128.082 80.5129 127.769 81.4946 127.553 82.4967C127.524 104.715 127.553 126.934 127.489 149.155C127.489 152.073 128.928 152.654 131.707 152.642C148.804 152.567 165.901 152.642 183.001 152.615C184.28 152.615 185.588 152.373 188.063 152.124L128.487 79.5633Z" fill="white" stroke="white" stroke-miterlimit="10"/>
<path d="M127.553 158.814C127.553 162.107 126.619 163.262 122.942 163.199C110.683 162.993 98.3997 163.522 86.164 162.948C78.0077 162.7 69.9129 161.535 62.0538 159.479C43.2332 154.092 26.9425 142.851 15.8786 127.617C4.8146 112.383 -0.359098 94.0694 1.21395 75.7082C3.85554 38.3891 37.5535 4.9762 77.3885 2.03989C91.687 0.986287 106.113 1.39935 120.479 1.21078C127.473 1.12397 127.496 1.21078 127.499 7.59225C127.499 32.5095 127.499 57.4268 127.499 82.3441C127.499 107.831 127.441 133.315 127.556 158.799M110.149 12.0701C100.283 12.0701 91.8789 11.66 83.532 12.1359C73.4606 12.6027 63.5935 14.9675 54.5219 19.0887C45.4503 23.2098 37.361 29.0025 30.7386 36.1197C24.1161 43.2368 19.0969 51.532 15.9816 60.508C12.8663 69.4841 11.7191 78.9564 12.6086 88.3574C13.3416 97.6968 16.2658 106.77 21.173 114.931C21.8638 115.903 22.6112 116.84 23.4117 117.736L110.149 12.0701ZM63.3394 148.739C75.281 152.72 87.6607 152.69 100.072 152.57C104.156 152.531 108.24 152.477 112.318 152.57C114.966 152.63 116.223 151.69 116.213 149.119C116.162 136.252 116.156 123.382 116.197 110.507C116.197 108.211 115.254 107.182 112.705 107.188C91.687 107.223 70.6694 107.152 49.6517 107.274C47.8769 107.348 46.2034 108.069 44.989 109.283C39.9424 115.075 35.1805 121.082 30.1724 127.197C38.891 137.108 50.3705 144.567 63.3394 148.748M55.6641 96.0978C58.1394 96.3462 59.4346 96.5857 60.7266 96.5887C77.8266 96.5887 94.9234 96.5408 112.02 96.6156C114.799 96.6156 116.248 96.0469 116.239 93.1285C116.171 70.9071 116.203 48.6887 116.175 26.4703C115.958 25.4682 115.646 24.4865 115.241 23.537L55.6673 96.0948" fill="white"/>
<path d="M127.553 158.814C127.553 162.107 126.619 163.262 122.942 163.199C110.683 162.993 98.3997 163.522 86.164 162.948C78.0077 162.7 69.9129 161.535 62.0538 159.479C43.2332 154.092 26.9425 142.851 15.8786 127.617C4.8146 112.383 -0.359098 94.0694 1.21395 75.7082C3.85554 38.3891 37.5535 4.9762 77.3885 2.03989C91.687 0.986287 106.113 1.39935 120.479 1.21078C127.473 1.12397 127.496 1.21078 127.499 7.59225C127.499 32.5095 127.499 57.4268 127.499 82.3441C127.489 107.846 127.438 133.33 127.553 158.814ZM110.149 12.0701C100.283 12.0701 91.8789 11.66 83.532 12.1359C73.4606 12.6027 63.5935 14.9675 54.5219 19.0887C45.4503 23.2098 37.361 29.0025 30.7386 36.1197C24.1161 43.2368 19.0969 51.532 15.9816 60.508C12.8663 69.4841 11.7191 78.9564 12.6086 88.3574C13.3416 97.6968 16.2658 106.77 21.173 114.931C21.8638 115.903 22.6112 116.84 23.4117 117.736L110.149 12.0701ZM63.3394 148.739C75.281 152.72 87.6607 152.69 100.072 152.57C104.156 152.531 108.24 152.477 112.318 152.57C114.966 152.63 116.223 151.69 116.213 149.119C116.162 136.252 116.156 123.382 116.197 110.507C116.197 108.211 115.254 107.182 112.705 107.188C91.687 107.223 70.6694 107.152 49.6517 107.274C47.8769 107.348 46.2034 108.069 44.989 109.283C39.9424 115.075 35.1805 121.082 30.1724 127.197C38.8923 137.105 50.3716 144.561 63.3394 148.739ZM55.6641 96.0888C58.1394 96.3372 59.4346 96.5767 60.7266 96.5797C77.8266 96.5797 94.9234 96.5318 112.02 96.6066C114.799 96.6066 116.248 96.0379 116.239 93.1196C116.171 70.8981 116.203 48.6797 116.175 26.4613C115.958 25.4593 115.646 24.4775 115.241 23.528L55.6641 96.0888Z" fill="white" stroke="white" stroke-miterlimit="10"/>
<path d="M165.916 12.091C169.191 12.0916 172.391 13.0009 175.113 14.7038C177.836 16.4067 179.957 18.8268 181.21 21.6582C182.463 24.4895 182.79 27.605 182.151 30.6106C181.512 33.6162 179.936 36.377 177.62 38.5439C175.305 40.7108 172.355 42.1866 169.144 42.7846C165.933 43.3826 162.604 43.076 159.579 41.9035C156.554 40.731 153.968 38.7454 152.149 36.1976C150.329 33.6498 149.358 30.6543 149.357 27.5897C149.37 23.4829 151.118 19.5476 154.221 16.6436C157.324 13.7396 161.529 12.1029 165.916 12.091Z" fill="white"/>
<path d="M78.4883 208.728C75.2131 208.728 72.0115 207.819 69.2883 206.116C66.5651 204.413 64.4426 201.993 63.1892 199.161C61.9359 196.329 61.6079 193.212 62.2469 190.206C62.8859 187.2 64.463 184.438 66.7789 182.27C69.0948 180.103 72.0454 178.627 75.2577 178.029C78.4699 177.431 81.7995 177.738 84.8253 178.911C87.8512 180.084 90.4374 182.07 92.257 184.619C94.0766 187.168 95.0478 190.164 95.0478 193.23C95.0352 197.337 93.2864 201.272 90.1837 204.176C87.0809 207.08 82.8762 208.717 78.4883 208.728Z" fill="white"/>
</svg>
