<svg width="427" height="347" viewBox="0 0 427 347" fill="none" xmlns="http://www.w3.org/2000/svg">
<g clip-path="url(#clip0_74_2521)">
<path d="M241.47 195.253C241.1 195.685 240.782 196.18 240.348 196.53C239.749 197.013 238.647 197 238.864 198.232C238.883 198.353 238.316 198.639 237.991 198.753C235.645 199.572 233.287 200.373 230.872 201.199C230.573 200.735 230.33 200.36 230.184 200.131C228.521 199.846 226.991 201.929 225.443 199.915C224.627 200.182 223.722 200.36 222.938 200.767C222.441 201.027 222.167 201.675 221.708 202.056C221.211 202.469 220.637 202.787 220.077 203.117C219.21 203.631 218.152 203.606 217.655 204.991C217.381 205.753 215.59 206.026 214.443 206.414C213.653 206.681 212.914 207.144 211.983 206.299C211.556 205.912 210.396 206.331 209.766 206.376C208.746 205.734 207.854 205.175 206.649 204.413C205.974 204.661 204.451 204.743 204.011 205.48C203.183 206.852 201.456 207.157 200.888 208.167C200.226 209.342 199.391 209.736 198.403 210.225C197.702 210.574 196.746 210.759 197.485 211.807C196.453 212.569 194.955 212.417 194.86 214.144C194.841 214.557 193.47 214.9 192.693 215.288C193.101 217.257 191.106 216.78 190.615 217.918C190.163 218.356 189.762 218.883 189.239 219.207C188.493 219.658 187.359 219.747 188.054 220.954C187.04 221.722 185.536 221.519 185.434 223.247C185.409 223.666 184.045 224.009 183.293 224.384C183.376 224.505 183.465 224.619 183.548 224.74C183.013 225.235 182.528 225.813 181.929 226.213C181.012 226.83 179.61 226.576 179.208 228.17C178.985 229.066 176.239 229.32 175.162 229.008C174.511 228.824 173.728 229.085 173.014 229.186C172.44 229.269 171.873 229.409 171.567 229.472C170.828 229.008 170.286 228.608 169.694 228.316C168.623 227.789 167.992 225.216 168.521 224.155C168.782 223.634 168.566 222.879 168.553 222.224C168.527 221.322 167.623 220.287 168.967 219.588C169.031 219.556 169.056 219.398 169.05 219.296C168.999 218.057 168.935 216.819 168.872 215.389C168.368 215.497 167.527 215.675 166.679 215.859L166.992 216.317C166.469 216.838 165.947 217.365 165.424 217.886C165.029 218.286 164.634 218.692 164.392 219.271C163.748 220.153 162.422 220.014 162.174 221.703C162.021 222.726 160.358 223.533 159.376 224.435C159.23 224.568 158.924 224.746 158.949 224.835C159.338 226.182 158.089 226.137 157.471 226.645C157.165 226.899 156.999 227.312 156.77 227.655C156.585 227.929 156.4 228.208 156.215 228.481C155.973 228.85 155.788 229.288 155.47 229.574C154.832 230.145 154.125 230.628 153.609 231.295C153.195 231.778 152.819 232.312 152.347 232.731C151.825 233.194 150.684 233.156 151.143 234.357C151.174 234.44 151.015 234.643 150.9 234.738C149.874 235.621 148.39 236.301 147.931 237.412C147.383 238.74 146.452 239.159 145.464 239.788C145.28 239.902 145.439 240.55 145.439 240.963C144.662 241.332 143.903 241.694 143.145 242.056C143.253 242.17 143.355 242.278 143.463 242.392C143.075 242.818 142.737 243.32 142.285 243.663C141.66 244.133 141.137 244.381 140.863 245.391C140.57 246.471 139.104 247.233 138.136 248.122C137.919 248.319 137.416 248.548 137.448 248.63C137.83 249.818 136.734 249.812 136.199 250.275C135.727 250.688 135.325 251.19 134.892 251.654C134.975 251.756 135.058 251.851 135.141 251.952C134.427 252.289 133.72 252.626 133.006 252.962C133.089 253.058 133.178 253.147 133.261 253.242C132.84 253.712 132.458 254.22 131.992 254.646C131.476 255.116 130.323 255.052 130.705 256.266C130.737 256.367 130.393 256.64 130.183 256.748C129.361 257.161 128.672 257.447 128.315 258.59C127.99 259.632 126.709 260.375 125.849 261.252C125.441 261.671 125.04 262.097 124.632 262.516C124.734 262.63 124.83 262.751 124.931 262.865C124.218 263.208 123.504 263.545 122.797 263.888C122.886 263.996 122.975 264.098 123.058 264.206C122.535 264.727 122 265.235 121.49 265.762C121.031 266.232 120.592 266.715 120.26 267.325C119.521 268.062 118.011 267.998 118.157 269.656C118.17 269.783 117.603 269.904 117.399 270.113C116.908 270.621 116.43 271.155 116.016 271.733C115.525 272.419 114.831 272.826 114.378 273.69C113.696 274.992 112.084 275.811 110.854 276.828C110.618 277.024 110.096 277.196 110.115 277.323C110.376 279.127 108.604 278.733 107.782 279.597C107.802 279.832 107.84 280.232 107.872 280.645C107.081 281.014 106.323 281.363 105.488 281.75C105.533 282.138 105.577 282.532 105.622 282.894C104.685 283.618 102.926 283.408 103.22 285.225C102.327 285.898 100.651 285.689 100.874 287.48C100.887 287.582 100.326 287.722 100.078 287.906C99.4851 288.344 98.2679 288.242 98.6566 289.57C98.6885 289.672 98.1086 289.926 97.8409 290.148C97.2546 290.637 95.8972 290.497 96.3752 291.901C96.4007 291.977 96.0183 292.212 95.808 292.34C95.0241 292.797 93.7432 292.746 93.9535 294.239C93.9726 294.391 93.2398 294.582 92.953 294.855C92.5197 295.281 92.2138 295.833 91.7804 296.252C91.3981 296.621 90.8819 296.843 90.4804 297.199C90.0152 297.612 89.6073 298.101 89.2823 298.723C88.6323 299.619 86.8033 299.238 87.0964 301.106C87.1156 301.214 86.593 301.404 86.3253 301.563C85.618 301.969 84.49 301.944 84.6875 303.284C84.713 303.469 83.9419 303.723 83.5978 304.015C83.0689 304.453 82.5909 304.949 82.0938 305.425C82.1831 305.539 82.2786 305.66 82.3679 305.774C81.6031 306.124 80.832 306.473 80.0163 306.848C80.0482 307.248 80.0864 307.642 80.1183 307.979C79.1815 308.747 77.3143 308.411 77.6966 310.272C76.8172 311.015 75.0328 310.627 75.3196 312.495C75.3323 312.597 74.9054 312.755 74.6887 312.902C73.9367 313.391 72.643 313.276 72.7641 314.769C72.7832 314.991 71.9293 315.29 71.4768 315.544C70.6611 316.001 69.4375 316.027 69.5331 317.462C69.5459 317.628 68.966 317.824 68.6664 318.015C68.01 318.434 66.71 318.256 67.0987 319.673C67.1179 319.736 67.0159 319.895 66.9458 319.914C65.582 320.372 64.6707 321.305 63.7849 322.43C63.0329 323.383 61.0892 323.103 60.9299 324.933C60.9108 325.129 60.197 325.25 59.8147 325.434C59.1902 325.739 58.6039 325.854 58.3744 326.838C58.2342 327.448 56.8641 327.74 56.0994 328.255C55.5704 328.61 55.1307 329.106 54.6528 329.538C54.7483 329.665 54.8439 329.792 54.9395 329.919C54.2067 330.224 53.4356 330.459 52.7537 330.846C52.1483 331.189 51.1159 331.17 51.3007 332.403C51.3325 332.612 50.4085 332.943 49.9433 333.248C49.0575 333.826 47.3814 333.425 47.4898 335.312C47.5025 335.553 46.4192 335.846 45.8583 336.131C45.0108 336.57 43.7362 336.411 43.6598 337.948C43.647 338.278 42.6401 338.558 42.0921 338.856C40.843 339.543 38.9758 339.314 38.5615 341.277C38.5169 341.499 37.9498 341.632 37.6056 341.759C36.2164 342.28 34.7889 342.712 33.4379 343.316C32.4182 343.773 31.0799 343.697 30.6402 345.253C30.4172 346.041 27.5176 346.371 26.6381 346.022C26.294 345.888 25.8479 345.939 25.4655 346.009C24.739 346.142 24.0253 346.346 23.3115 346.524C22.6424 346.689 21.9733 346.867 21.4826 346.994C20.7433 346.543 20.1188 346.155 19.0992 345.526C18.9653 344.955 17.6972 343.906 19.1884 342.731C19.284 342.655 19.1884 342.331 19.1629 342.128C19.0227 341.188 18.5384 340.235 19.5198 339.403C19.7109 339.238 19.6663 338.672 19.5771 338.329C19.3987 337.643 19.0928 336.995 20.0423 336.621C20.1443 336.582 20.2781 336.309 20.2335 336.233C19.405 334.785 20.8963 333.762 20.9473 332.441C20.9791 331.672 21.661 330.897 22.1262 330.173C22.6934 329.29 23.3434 328.452 23.9616 327.594C24.3949 326.991 24.892 326.425 25.2744 325.796C25.8288 324.882 26.2685 323.897 26.8166 322.976C27.0778 322.538 27.473 322.188 27.6068 322.023C28.4416 320.137 29.1235 318.504 30.653 317.92C31.3094 316.719 31.8064 315.792 32.3099 314.871C32.3672 314.922 32.4246 314.966 32.4819 315.017C33.5717 313.651 34.655 312.285 35.7448 310.92C35.732 310.913 35.7193 310.907 35.7129 310.901C36.8154 309.541 37.9115 308.188 39.014 306.829C38.9057 306.74 38.791 306.651 38.6826 306.568C39.3709 305.781 41.3974 306.2 40.7092 304.421C41.8626 303.246 42.895 302.198 44.0931 300.991C43.6151 299.41 45.5971 299.854 46.0432 298.806C46.4956 298.336 46.8907 297.796 47.4069 297.409C47.9677 296.983 48.5923 296.837 48.6624 295.846C48.7133 295.134 49.6884 294.639 50.1472 293.877C50.9374 292.562 52.5689 291.768 53.7797 290.682C54.1557 290.345 54.3341 289.78 54.5189 289.252C55.2837 288.528 56.8067 288.643 56.7876 286.915C56.7876 286.565 58.094 286.21 58.795 285.854C58.7058 285.74 58.6166 285.625 58.5274 285.511C59.0372 285.028 59.5598 284.558 60.0568 284.063C60.5284 283.593 60.9745 283.104 61.2995 282.481C62.0197 281.725 63.53 281.808 63.4408 280.15C63.4344 279.985 64.1991 279.851 64.4923 279.584C64.9702 279.146 65.3335 278.581 65.7859 278.111C66.0472 277.838 66.3722 277.609 66.6973 277.406C67.3345 276.993 68.2458 277.044 68.2458 275.767C68.2458 275.297 69.7052 274.827 70.2851 274.128C70.7312 273.671 71.1136 273.112 71.6361 272.775C72.2734 272.362 73.1783 272.286 72.9744 271.161C72.9489 271.034 73.4269 270.825 73.6627 270.641C74.3127 270.139 75.7147 270.323 75.3132 268.849C75.3005 268.811 75.3515 268.729 75.3769 268.722C77.1804 268.43 77.6393 266.486 79.054 265.756C79.9972 265.267 81.0806 265.184 81.3227 263.729C81.3992 263.253 82.7247 262.973 83.362 262.484C85.0635 260.522 86.6695 258.444 89.3715 257.625C89.2823 257.517 89.1995 257.409 89.1102 257.307C89.6264 256.818 90.0853 256.253 90.6716 255.872C91.2961 255.465 92.1946 255.503 92.2138 254.373C92.2138 254.061 92.9658 253.731 93.4118 253.477C94.3232 252.962 95.7506 253.121 95.7506 251.432C95.7506 251.158 96.8276 250.93 97.3566 250.606C98.1022 250.142 99.4723 250.314 99.2557 248.77C99.2365 248.618 100.027 248.357 100.428 248.135C101.397 247.608 102.799 247.569 102.844 246.007C102.844 245.962 102.882 245.899 102.92 245.873C104.66 244.73 106.419 243.612 108.139 242.437C108.534 242.17 108.751 241.662 109.127 241.351C109.662 240.906 110.249 240.512 110.848 240.156C111.638 239.686 112.696 239.744 112.925 238.352C113.014 237.813 114.487 237.489 115.34 237.101C115.927 236.828 116.647 236.834 116.621 235.812C116.615 235.475 117.501 235.087 118.011 234.783C118.903 234.243 120.222 234.433 120.483 232.832C120.566 232.331 122.019 232.102 122.771 231.632C123.268 231.321 123.631 230.787 124.078 230.38C124.415 230.076 124.747 229.72 125.148 229.536C126.11 229.091 127.111 228.748 128.086 228.348C128.373 228.233 128.876 228.037 128.863 227.909C128.73 226.163 130.278 226.417 131.183 225.902C132.279 225.28 133.783 225.426 134.293 223.666C134.478 223.037 136.141 222.872 137.091 222.421C137.977 222.002 139.162 222.053 139.436 220.636C139.519 220.211 140.526 219.912 141.15 219.645C142.31 219.143 143.941 219.035 144.591 218.172C146.376 215.821 149.594 216.164 151.353 214.475C155.317 210.657 160.874 211.07 164.768 208.662C165.398 207.862 165.781 207.373 166.163 206.89C167.094 205.721 168.024 204.546 168.84 203.282C169.636 202.59 170.605 202.336 171.134 200.951C171.459 200.106 172.115 198.327 173.893 198.061C174.225 198.01 175.251 196.479 175.314 195.869C175.423 194.821 176.156 194.796 176.595 194.319C176.99 193.9 177.386 193.487 177.634 192.903C179.221 191.956 180.202 190.616 180.763 188.799C181.005 188.024 181.757 187.383 182.344 186.735C183.217 185.769 184.198 184.899 185.039 183.908C185.721 183.101 186.263 182.174 186.951 181.316C187.289 180.859 187.901 180.408 187.913 179.944C187.964 178.172 190.38 178.229 190.456 176.425C190.482 175.834 191.336 175.269 191.673 174.564C193.305 173.687 194.044 172.22 194.656 170.505C194.981 169.59 195.828 168.803 196.587 168.123C197.683 167.138 198.428 166.001 198.766 164.578C198.811 164.4 198.996 164.261 199.11 164.102C199.423 163.676 199.735 163.251 200.104 162.755C200.353 162.076 200.468 161.415 200.812 160.9C201.411 159.998 202.163 159.204 202.813 158.334C203.495 157.426 204.17 156.511 204.769 155.546C205.407 154.51 205.942 153.418 206.515 152.35C206.879 151.671 207.242 150.991 207.592 150.299C208.211 149.085 208.912 147.91 209.39 146.646C209.829 145.49 209.925 144.213 210.333 143.044C210.721 141.926 211.327 140.885 211.716 139.659C212.041 139.176 212.372 138.693 212.691 138.204C212.774 138.083 212.875 137.944 212.888 137.81C213.041 136.495 213.124 135.161 213.353 133.859C213.424 133.478 213.889 133.167 214.354 132.608C214.481 131.922 213.073 130.626 214.819 129.832C214.896 129.8 214.704 129.26 214.692 128.955C214.66 128.199 213.952 127.304 215.17 126.764C215.297 126.707 215.093 126.002 215.119 125.601C215.163 124.884 214.303 124.045 215.546 123.41C215.781 123.289 215.323 121.879 215.227 121.06C215.138 120.291 214.201 119.408 215.546 118.779C215.686 118.716 215.603 117.979 215.482 117.598C214.443 114.326 213.404 111.049 212.276 107.809C212.13 107.377 211.416 107.174 211.053 106.78C210.683 106.386 210.396 105.903 210.122 105.44C209.581 104.519 209.517 103.477 208.058 103C206.796 102.587 205.904 101.05 204.91 100.072C203.508 99.3796 202.163 98.5793 200.716 98.0457C199.251 97.5058 197.683 97.2263 196.211 96.6673C195.191 96.4068 193.98 97.601 193.024 96.0892C192.91 95.9114 192.037 96.2798 191.514 96.2734C190.928 96.2607 190.341 96.1083 189.755 96.0194C189.755 95.8669 189.768 95.7081 189.774 95.5556C188.901 95.7589 188.034 95.9685 187.161 96.1527C186.798 96.229 186.237 96.4195 186.091 96.2671C184.823 94.8696 183.574 96.1019 182.325 96.2163C181.324 96.3052 180.26 97.3152 179.342 95.9749C179.272 95.8669 178.762 96.0321 178.469 96.1146C176.94 96.5466 175.423 97.0293 173.887 97.4168C173.205 97.5883 172.434 98.2045 171.784 97.1691C171.669 96.9849 170.796 97.1882 170.305 97.3279C167.457 98.1537 164.634 99.0748 161.76 99.8116C160.963 100.015 160.026 99.6909 159.16 99.6083C159.109 99.6083 159.064 99.5639 159.013 99.5512C158.248 99.3479 152.666 101.654 152.13 102.264C151.78 102.67 151.257 103.007 150.748 103.185C146.064 104.862 141.36 106.494 136.67 108.165C135.772 108.489 134.746 108.597 134.37 109.816C134.242 110.216 133.452 110.464 132.917 110.667C131.139 111.347 129.322 111.944 127.551 112.649C126.735 112.973 125.62 113.018 125.582 114.345C125.582 114.53 125.008 114.727 124.683 114.86C123.3 115.393 121.898 115.876 120.528 116.435C119.859 116.708 118.967 116.715 118.947 117.896C118.947 118.233 118.004 118.633 117.443 118.862C116.417 119.281 115.296 119.503 114.314 119.999C113.703 120.31 113.282 120.977 112.753 121.466C112.498 121.701 112.224 121.943 111.912 122.076C110.701 122.61 108.961 122.762 108.362 123.677C107.266 125.341 105.004 125.277 104.258 126.446C102.971 128.441 100.447 128.18 99.4405 129.616C98.2934 131.255 96.0247 131.236 95.432 132.417C94.5143 134.247 92.4177 133.942 91.7486 135.079C90.7799 136.73 88.6705 136.73 88.0587 137.817C87.0646 139.595 84.8341 139.449 84.2287 140.612C83.3684 142.263 81.4502 142.155 80.8575 143.222C79.9335 144.893 77.9324 144.893 77.1932 146.074C76.4348 147.294 74.8735 147.523 74.5421 148.323C73.9622 149.721 72.3435 149.816 72.0249 150.597C71.3175 152.293 69.0169 152.357 68.813 153.265C68.3797 155.183 65.6776 154.65 65.7668 156.683C65.7732 156.841 65.2889 157.013 65.034 157.184C64.3457 157.661 63.0138 157.546 63.3643 158.988C63.3707 159.02 63.3133 159.077 63.2687 159.109C61.8348 160.189 60.3819 161.237 58.9799 162.361C58.4955 162.749 58.1705 163.333 57.7308 163.797C57.4631 164.076 57.1445 164.305 56.8322 164.547C56.2714 164.985 55.2199 164.966 55.4239 166.128C55.4493 166.287 55.0606 166.573 54.8184 166.719C54.0665 167.17 53.085 167.214 53.0213 168.561C52.9958 169.12 51.9443 169.597 51.4409 170.327C50.4276 171.794 48.7771 172.817 47.4834 174.126C47.0564 174.608 46.6868 175.155 46.1961 175.561C45.6608 176.006 44.5073 175.949 45.0363 177.175C45.0681 177.245 44.7113 177.524 44.4946 177.645C43.698 178.096 42.9651 178.255 42.5955 179.519C42.2259 180.783 40.6072 181.685 39.613 182.904C39.1287 183.387 38.6316 183.864 38.1537 184.353C37.7267 184.797 37.3125 185.255 37.1277 185.972C36.0953 187.04 35.0629 188.107 34.0369 189.174C34.0688 189.199 34.0942 189.225 34.1261 189.25C33.7884 189.682 33.2403 190.076 33.1447 190.559C32.8452 192.159 30.7294 192.331 30.5319 194.103C30.4681 194.669 29.5377 195.825 29.2255 195.958C27.8107 196.562 27.6259 198.054 26.6254 198.905C25.9945 199.445 25.7013 200.373 25.2425 201.116C24.9239 201.631 24.5797 202.132 24.2547 202.647C23.6047 203.676 22.9228 204.692 22.3174 205.753C21.884 206.515 21.712 207.481 21.1448 208.091C20.2335 209.075 19.7109 210.155 19.3286 211.407C19.1246 212.086 18.4173 212.442 18.1624 213.319C17.7163 214.849 16.4672 216.139 15.6897 217.6C15.2118 218.496 15.0461 219.55 14.651 220.496C14.3642 221.17 13.9245 221.78 13.5549 222.415C13.6632 222.504 13.7779 222.599 13.8862 222.688C13.523 222.879 13.1534 223.069 12.7901 223.26C12.9112 223.355 13.0259 223.45 13.147 223.546C12.8156 224.035 12.4906 224.524 12.1656 225.013C12.0891 225.134 11.9744 225.254 11.9617 225.388C11.8024 226.728 11.7195 228.075 11.4773 229.402C11.4072 229.771 10.891 230.057 10.5915 230.374C10.5278 231.454 11.6749 232.604 10.2474 233.639C10.0052 233.817 10.445 234.916 10.5597 235.596C10.7636 236.828 11.5028 237.978 10.5405 239.331C10.1964 239.813 10.7445 240.931 10.8592 241.617C10.4386 242.259 10.0498 242.843 9.66111 243.434C9.78219 243.574 9.8969 243.72 10.018 243.86C7.35417 244.813 4.69673 245.772 1.70154 246.845C1.07064 244.425 0.477969 242.323 0.0191307 240.188C-0.0509696 239.858 0.490714 239.401 0.809352 238.911C0.57356 237.819 -0.203916 236.656 0.94318 235.386C1.26182 235.037 0.809352 233.988 0.962298 233.341C1.13436 232.794 1.39565 232.254 1.453 231.689C1.53585 230.901 0.745625 229.904 2.09028 229.459C2.154 229.44 2.13489 229.167 2.154 229.015C2.31969 227.744 2.31332 226.417 2.70843 225.216C3.01433 224.289 3.89377 223.558 4.38447 222.669C4.73497 222.04 4.20603 221.163 5.18743 220.573C5.73549 220.242 6.18796 219.143 6.09874 218.47C5.79922 216.241 7.87674 214.932 8.06155 212.925C8.08066 212.709 8.56499 212.575 8.72431 212.328C9.46992 211.178 10.1582 209.99 10.9038 208.834C11.471 207.964 12.1146 207.138 12.6882 206.274C13.1789 205.543 13.9691 204.788 13.9946 204.019C14.0264 203.009 14.7338 202.901 15.1927 202.406C15.9128 201.611 16.703 200.792 17.1172 199.839C17.7099 198.474 18.2898 197.19 19.5835 196.352C19.832 196.193 20.1507 196.015 20.2526 195.767C20.9345 194.103 21.6865 192.522 23.3115 191.696C23.6302 191.245 23.9998 190.819 24.2675 190.343C24.892 189.231 25.6121 188.253 26.8675 187.757C26.9695 187.719 26.8421 187.09 26.8484 187.116C27.4092 186.271 27.7534 185.636 28.2122 185.102C28.5754 184.677 29.1044 184.397 29.5186 184.003C29.7799 183.756 30.0029 183.444 30.175 183.127C30.2642 182.968 30.175 182.549 30.2069 182.549C31.9275 182.314 32.1952 180.452 33.4442 179.677C33.9286 179.379 34.1771 178.725 34.5786 178.267C35.4134 177.314 36.2164 176.311 37.1659 175.485C37.6248 175.091 38.3831 175.085 38.0581 174.164C38.0135 174.037 38.3704 173.713 38.5998 173.56C39.3581 173.065 40.6709 173.109 40.4096 171.648C42.1303 171.362 42.3852 169.431 43.7426 168.695C44.3289 168.377 44.7304 167.723 45.1127 167.1C45.648 166.154 47.6427 166.719 47.1711 164.731C48.0952 164.032 49.7585 164.178 49.8413 162.342C49.8541 161.999 51.186 161.707 51.6703 161.11C52.1483 160.615 52.5689 160.049 53.1105 159.63C53.6777 159.198 54.64 159.268 54.5126 158.067C54.4807 157.788 55.5513 157.369 56.1376 157.051C56.8832 156.651 57.9602 156.632 57.8391 155.33C57.8264 155.158 58.3808 154.948 58.6548 154.739C59.2985 154.25 60.6941 154.536 60.4073 152.992C60.3755 152.808 61.427 152.439 61.9687 152.128C62.7908 151.658 64.0334 151.804 64.1035 150.229C64.1227 149.778 65.5502 149.39 66.111 148.704C66.5953 148.221 67.0223 147.656 67.5767 147.269C68.4434 146.665 69.9665 146.805 69.8709 145.128C69.8645 145.001 70.3934 144.848 70.6611 144.69C71.3812 144.277 72.7004 144.493 72.3881 142.962C72.3563 142.803 73.2166 142.466 73.6627 142.2C74.5676 141.666 75.9696 141.799 76.0525 140.142C76.0716 139.805 77.3525 139.614 77.9452 139.201C78.5315 138.795 78.9903 138.198 79.4874 137.671C79.5893 137.563 79.583 137.34 79.6977 137.27C81.4566 136.133 83.2027 134.977 84.9998 133.904C85.8092 133.421 86.8925 133.421 87.0391 132.049C87.0773 131.668 88.2754 131.445 88.9063 131.09C89.6774 130.664 91.0093 130.88 90.8627 129.311C90.8436 129.089 91.7804 128.771 92.2775 128.498C93.2398 127.977 94.68 128.193 94.9094 126.503C94.9668 126.097 96.1521 125.862 96.7958 125.506C97.8983 124.896 99.415 125.074 99.9312 123.296C100.116 122.654 101.76 122.47 102.71 122.006C103.525 121.606 104.781 121.688 104.755 120.227C104.755 120.031 105.393 119.776 105.762 119.618C106.737 119.211 107.738 118.849 108.719 118.462C109.012 118.347 109.516 118.233 109.548 118.055C109.93 115.914 111.982 116.308 113.269 115.559C114.034 115.12 115.079 115.139 115.283 113.856C115.347 113.45 116.373 113.132 117.004 112.884C118.387 112.344 119.821 111.938 121.178 111.36C121.822 111.087 122.816 111.03 122.701 109.861C122.688 109.702 123.23 109.435 123.549 109.314C125.135 108.717 126.767 108.235 128.315 107.555C129.768 106.913 131.368 106.78 132.521 105.192C133.286 104.144 135.211 103.864 136.664 103.388C147.631 99.7989 158.611 96.229 169.604 92.7162C171.115 92.2335 172.581 91.3187 174.384 92.2652C175.028 92.6019 176.207 91.973 177.124 91.7316C178.303 91.4204 179.45 90.9694 180.642 90.7534C181.184 90.6581 181.796 91.052 182.388 91.1218C182.873 91.179 183.382 91.1155 183.873 91.0583C185.109 90.9186 186.174 89.9721 187.665 91.0011C188.359 91.4839 189.965 90.6645 191.234 90.4231C192.049 92.1128 193.318 90.8169 194.547 90.8169C195.236 92.4367 196.453 91.4712 197.549 91.2997C197.536 91.4394 197.524 91.5792 197.511 91.7189C198.244 91.8523 199.002 91.9222 199.709 92.1382C200.856 92.4875 201.978 92.9195 203.106 93.3451C203.323 93.4277 203.469 93.6945 203.68 93.7643C204.043 93.8787 206.541 95.3905 206.949 95.4286C207.917 95.5239 208.529 96.4958 209.09 96.572C210.193 96.7181 210.365 97.474 210.894 98.0393C211.161 98.3252 211.537 98.5221 211.888 98.7127C212.002 98.7762 212.257 98.6364 212.327 98.7127C213.232 99.6464 214.131 100.593 215.004 101.552C215.176 101.736 215.227 102.187 215.374 102.206C217.254 102.429 217.33 104.08 217.744 105.319C219.242 109.765 220.637 114.25 222.008 118.741C222.135 119.16 221.772 119.707 221.721 120.196C221.664 120.786 221.632 121.396 221.708 121.981C221.836 123.029 222.849 124.115 221.472 125.049C221.44 125.074 221.415 125.163 221.434 125.195C222.492 126.885 220.587 128.479 221.268 130.162C221.358 130.378 221.358 130.842 221.256 130.886C220.077 131.426 220.555 132.341 220.682 133.186C220.688 133.237 220.727 133.294 220.714 133.338C220.325 134.672 219.911 136 219.535 137.334C219.395 137.842 219.337 138.369 219.012 138.839C218.853 139.417 218.732 140.014 218.515 140.573C218.209 141.361 218.044 142.416 217.445 142.835C216.553 143.457 216.922 144.188 216.756 144.887C216.521 145.858 216.31 146.9 215.781 147.72C215.087 148.8 214.494 149.854 214.074 151.086C213.844 151.76 213.194 152.249 213.016 153.157C212.85 154.008 211.779 154.65 211.314 155.501C210.843 156.352 210.626 157.343 210.282 158.271C210.218 158.448 210.142 158.684 209.995 158.76C208.459 159.605 208.039 161.161 207.382 162.609C206.974 163.511 205.999 164.172 205.662 165.08C205.324 165.969 204.776 166.668 204.355 167.469C203.711 168.707 203.151 169.933 202.029 170.842C201.704 171.102 201.538 171.559 201.309 171.934C201.162 172.176 201.06 172.436 200.914 172.671C200.614 173.135 200.289 173.586 199.843 174.246C199.665 174.659 199.442 175.218 199.18 175.758C199.098 175.93 198.97 176.114 198.817 176.216C198.014 176.743 196.88 176.87 197.039 178.343C197.09 178.801 196.223 179.353 196.013 180.128C195.051 181.177 194.089 182.225 193.126 183.266C193.139 183.285 193.145 183.305 193.158 183.317C192.795 183.781 192.088 184.276 192.126 184.696C192.323 186.608 189.545 186.322 189.66 188.227C189.691 188.761 188.774 189.352 188.436 190.076C186.722 190.87 186.097 192.483 185.307 194.052C184.797 195.062 183.854 195.85 183.096 196.733C182.675 197.222 182.242 197.699 181.942 198.035C180.693 199.541 179.584 200.868 178.482 202.202C178.609 202.317 178.737 202.425 178.864 202.539C178.118 202.914 177.366 203.288 176.621 203.657C176.716 203.746 176.812 203.841 176.914 203.93C176.57 204.362 176.175 204.769 175.901 205.239C175.423 206.045 174.658 206.909 174.696 207.722C174.728 208.44 174.703 209.806 176.27 209.831C177.022 209.844 177.793 212.81 177.341 213.617C177.271 213.744 177.003 213.827 177.003 213.928C176.984 215.967 176.991 218.006 176.991 220.3C178.475 219.715 180.221 219.556 180.591 218.769C181.4 217.022 183.491 217.047 184.16 215.834C184.835 214.608 186.607 214.144 186.588 213.77C186.473 211.527 189.838 212.423 189.558 210.244C189.538 210.085 190.239 209.838 190.603 209.634C191.552 209.094 192.782 209.024 193.05 207.494C193.133 207.004 194.445 206.731 194.981 206.141C195.421 205.658 195.796 205.092 196.313 204.718C196.937 204.26 197.995 204.337 197.919 203.092C197.906 202.857 198.613 202.545 199.021 202.317C199.932 201.796 201.245 201.739 201.271 200.227C201.271 200.074 201.761 199.928 202.023 199.776C203.176 199.128 204.788 199.248 205.305 197.495C205.438 197.032 206.675 196.841 207.433 196.638C208.121 196.454 208.765 196.003 209.511 196.943C209.823 197.343 211.168 196.93 212.111 196.885C212.506 197.622 212.901 198.359 213.213 198.937C214.125 199.21 214.921 199.445 215.711 199.68C215.641 199.553 215.565 199.433 215.495 199.306C216.138 198.817 216.75 198.27 217.438 197.845C218.764 197.038 220.555 197.216 221.402 195.278C221.759 194.459 223.665 194.357 224.799 193.805C225.901 193.265 227.699 193.589 227.756 191.594C227.756 191.454 228.31 191.359 228.559 191.181C229.164 190.756 230.343 190.825 230.018 189.523C229.986 189.403 230.547 189.136 230.834 188.945C231.924 188.227 233.753 188.482 233.976 186.582C233.995 186.443 234.447 186.392 234.651 186.239C235.601 185.509 237.086 185.648 237.513 183.914C237.659 183.317 239.756 182.974 240.96 182.974C241.387 182.974 241.954 184.315 242.197 185.121C242.566 186.366 241.623 186.894 240.648 187.3C240.508 187.357 240.38 187.459 240.495 187.732C240.17 188.208 239.826 188.672 239.533 189.168C239.393 189.409 239.201 189.816 239.297 189.955C239.456 190.178 239.877 190.406 240.125 190.349C241.253 190.095 242.362 189.746 243.618 189.396C243.713 190.521 245.364 191.543 243.49 192.63C243.293 192.744 243.42 193.398 243.388 193.862C242.694 194.179 241.98 194.503 241.26 194.834C241.317 194.961 241.381 195.094 241.438 195.221L241.47 195.253ZM131.878 244.527C131.789 244.425 131.699 244.317 131.61 244.215C132.56 243.606 134.236 243.701 133.815 241.903C134.688 241.535 135.459 241.211 136.23 240.887C136.128 240.773 136.026 240.665 135.931 240.55C136.294 240.137 136.645 239.718 137.014 239.312C137.862 238.371 139.034 237.565 139.48 236.46C140.099 234.941 141.679 234.433 142.393 233.004C142.935 231.899 144.878 231.276 145.05 230.247C145.324 228.627 146.586 228.786 147.153 228.278C147.421 227.586 147.561 226.734 147.791 226.709C149.549 226.518 149.479 224.536 150.786 223.838C151.633 223.387 152.118 222.243 152.761 221.411C152.819 221.462 152.882 221.513 152.94 221.564C153.265 220.706 153.59 219.849 153.915 218.991C153.787 218.902 153.666 218.807 153.539 218.718C153.137 218.908 152.424 219.055 152.398 219.29C152.207 220.84 150.862 220.859 149.868 221.284C148.753 221.761 147.568 222.091 146.44 222.536C145.904 222.745 145.006 223.031 144.974 223.355C144.783 225.064 143.279 224.822 142.304 225.324C141.462 225.756 139.863 225.985 139.805 226.461C139.563 228.36 137.964 228.037 136.938 228.615C136.249 229.002 135.013 229.174 134.886 229.663C134.465 231.333 132.993 231.219 131.935 231.803C131.521 232.026 130.731 232.28 130.75 232.458C130.915 234.096 129.482 233.849 128.672 234.3C128.124 234.605 127.066 234.725 127.003 235.068C126.652 237.006 124.9 236.847 123.695 237.495C123.185 237.768 122.229 238.016 122.223 238.289C122.172 240.042 120.674 239.845 119.699 240.353C119.241 240.595 118.38 240.931 118.406 241.128C118.603 242.621 117.297 242.399 116.602 242.843C115.997 243.231 114.888 243.561 114.863 243.974C114.78 245.206 113.83 245.156 113.155 245.53C112.473 245.912 111.205 246.229 111.179 246.629C111.103 248.014 110.006 247.912 109.261 248.344C109.038 248.478 108.579 248.554 108.573 248.675C108.503 250.618 106.686 250.403 105.609 251.089C105.348 251.254 104.857 251.463 104.883 251.59C105.125 253.026 103.908 252.962 103.137 253.35C102.856 253.49 102.34 253.636 102.34 253.782C102.321 255.548 100.677 255.408 99.7209 256.062C99.4277 256.266 98.8032 256.462 98.8223 256.583C99.0709 258.133 97.6625 257.93 96.9423 258.432C96.6938 258.603 96.2477 258.775 96.2413 258.959C96.2095 260.306 95.056 260.382 94.2212 260.826C93.7241 261.093 92.7873 261.481 92.8192 261.652C93.1251 263.094 91.8186 262.885 91.2069 263.348C90.9265 263.564 90.3019 263.685 90.3019 263.856C90.2701 265.279 89.0593 265.381 88.1862 265.864C87.7337 266.111 86.8861 266.493 86.9244 266.632C87.2558 267.954 86.0832 267.827 85.4969 268.284C84.9871 268.678 84.6047 269.23 84.1586 269.707C83.5851 270.336 82.1257 270.768 82.1384 271.161C82.1831 272.603 81.0359 272.476 80.3541 272.972C80.0482 273.194 79.7869 273.48 79.5447 273.766C79.207 274.166 78.9839 274.719 78.5697 274.979C77.9197 275.379 77.4991 275.818 77.0147 276.446C75.9951 277.774 74.3892 278.638 73.0764 279.756C71.8528 280.798 71.3302 282.792 69.3483 282.945C69.3037 282.945 69.2081 283.142 69.2336 283.211C69.6733 284.26 68.7811 284.279 68.214 284.571C67.7997 284.787 67.2389 284.984 67.0541 285.346C66.2767 286.87 65.4227 288.274 63.804 289.055C63.632 289.138 63.3516 289.348 63.3707 289.43C63.7403 290.783 62.4912 290.732 61.854 291.209C61.5863 291.412 61.2995 291.603 61.0829 291.857C60.6941 292.308 60.452 292.962 59.9804 293.235C58.6676 293.991 58.4573 295.929 56.7239 296.176C57.0234 297.485 55.7871 297.542 55.1626 298.126C54.4297 298.812 53.2635 299.638 53.2699 300.394C53.2826 301.747 52.2693 301.658 51.6958 302.185C51.4536 302.408 51.2115 302.63 51.0203 302.89C50.7399 303.265 50.5487 303.723 50.2428 304.066C49.4143 304.993 48.4011 305.793 47.7702 306.835C47.5025 307.28 47.5216 307.763 46.9672 308.245C45.8265 309.224 44.9853 310.558 44.0166 311.745C44.0166 311.745 44.0039 311.745 44.0039 311.739C42.9715 313.06 41.9455 314.388 40.9131 315.709C41.0405 315.804 41.1616 315.906 41.2891 316.001C40.9003 316.249 40.1611 316.554 40.1866 316.745C40.4224 318.434 38.8547 318.314 38.3767 319.152C38.0071 319.743 37.6439 320.34 37.2743 320.931C36.9875 321.204 37.1723 321.795 36.9556 322.068C36.1718 323.059 35.2286 323.916 34.4065 324.882C33.8712 325.511 33.3486 326.19 33.0045 326.933C32.5712 327.874 32.5329 329.042 31.953 329.849C30.9525 331.234 30.124 332.568 30.3917 334.353C30.4235 334.55 30.1495 334.778 30.0539 335.007C29.9137 335.35 29.8118 335.706 29.697 336.055C30.0667 336.144 30.4745 336.385 30.7932 336.297C32.0613 335.934 33.3104 335.496 34.5467 335.032C34.7952 334.944 34.9673 334.639 35.1521 334.416C35.4963 334.01 35.7384 333.451 36.1718 333.209C36.9938 332.752 38.466 332.682 38.6954 332.079C39.3836 330.268 41.0023 330.173 42.3406 329.512C42.844 329.265 43.7553 328.96 43.749 328.693C43.7171 327.188 44.9789 327.334 45.7819 326.908C46.3809 326.59 47.5599 326.273 47.5344 326.044C47.3814 324.424 48.7325 324.456 49.5737 324.151C51.2816 323.535 51.6767 321.229 53.7096 321.121C53.7414 321.121 53.7924 321.039 53.7924 321.001C53.7542 319.381 55.1753 319.419 56.1376 318.917C56.5391 318.707 57.2847 318.39 57.2528 318.231C56.9979 316.853 58.2215 316.961 58.8715 316.516C59.171 316.313 59.7892 316.198 59.7956 316.02C59.8975 314.471 61.2294 314.394 62.2108 313.892C62.5805 313.702 63.256 313.435 63.2369 313.27C63.0712 311.771 64.3839 311.879 65.1487 311.396C65.3972 311.237 65.8497 310.996 65.8242 310.875C65.531 309.592 66.7227 309.668 67.309 309.205C67.5831 308.989 68.1694 308.855 68.1821 308.665C68.2586 307.356 69.3292 307.185 70.1895 306.715C70.6739 306.454 71.0626 306.009 71.4705 305.622C71.8783 305.234 72.2543 304.822 72.6558 304.421C73.1847 303.894 73.7137 303.38 74.2426 302.859C74.7906 302.179 76.2054 301.696 76.1863 301.302C76.1034 299.975 77.1103 300.089 77.7349 299.689C77.9961 299.524 78.5442 299.384 78.5378 299.276C78.3721 297.428 80.1055 297.656 81.1698 296.869C80.335 295.662 81.5713 295.643 82.2277 295.223C82.6483 294.957 83.1135 294.728 83.4703 294.391C83.9865 293.909 84.4071 293.324 84.917 292.829C85.1336 292.619 85.7072 292.511 85.7008 292.384C85.5988 290.663 87.1729 290.758 87.944 289.983C88.3136 289.322 88.8043 288.808 89.3333 288.338C89.6647 288.045 90.4103 287.728 90.372 287.588C90.0407 286.451 91.0093 286.426 91.5765 286.076C91.8888 285.886 92.5324 285.746 92.526 285.6C92.4623 283.872 94.0746 283.917 94.8393 283.046C95.1389 282.411 95.6104 281.979 96.0757 281.541C96.5727 281.077 97.0571 280.601 97.5478 280.131C97.4585 280.016 97.363 279.902 97.2737 279.788L99.5807 278.746L99.2748 278.39C99.7145 277.946 100.122 277.463 100.594 277.063C100.976 276.739 101.849 276.408 101.811 276.249C101.486 274.935 102.646 275.004 103.251 274.579C103.538 274.376 104.131 274.141 104.105 274.02C103.78 272.559 105.087 272.667 105.788 272.203C106.004 272.063 106.444 271.886 106.425 271.809C106.043 270.234 107.534 270.361 108.235 269.789C108.394 269.662 108.617 269.561 108.694 269.396C109.388 267.909 110.121 266.461 111.734 265.73C111.918 265.648 112.243 265.483 112.231 265.394C111.918 263.513 113.849 263.971 114.544 263.132C114.518 262.757 114.493 262.364 114.467 262.033C115.309 261.633 116.022 261.29 116.736 260.947C116.641 260.826 116.545 260.706 116.449 260.585C116.934 260.121 117.424 259.664 117.896 259.194C118.387 258.705 118.858 258.203 119.343 257.708C120.609 256.839 121.267 255.967 121.318 255.09C121.681 254.932 122.083 254.792 122.452 254.589C122.816 254.392 123.3 254.22 123.466 253.903C124.256 252.397 124.989 250.879 126.722 250.206C126.862 250.155 127.079 249.99 127.066 249.913C126.837 248.51 128.01 248.389 128.838 247.932C129.036 247.824 129.329 247.531 129.29 247.398C129.048 246.432 129.839 246.337 130.367 245.95C130.928 245.543 131.381 244.99 131.878 244.495V244.527Z" fill="white"/>
<path d="M342.676 127.609C343.122 127.151 343.517 126.624 344.033 126.262C344.645 125.837 345.486 125.805 345.569 124.712C345.594 124.331 346.48 123.899 347.047 123.689C349.036 122.959 351.049 122.317 352.617 121.797C353.624 122.228 354.478 122.336 354.822 122.813C355.332 123.518 355.95 125.017 355.695 125.246C354.465 126.332 355.459 127.399 355.415 128.441C355.281 128.415 355.154 128.396 355.02 128.371C354.873 128.93 354.911 129.762 354.554 130.01C353.07 131.014 354.453 132.945 353.025 134.063C352.362 134.577 352.483 136 352.05 136.921C351.636 137.804 350.871 138.522 350.431 139.398C349.934 140.389 349.616 141.469 349.444 142.613C350.559 142.149 352.197 142.53 352.069 140.669C352.056 140.51 352.655 140.326 352.955 140.129C353.567 139.722 354.605 139.818 354.408 138.477C354.357 138.153 355.791 137.607 356.332 136.902C356.861 136.407 357.352 135.841 357.938 135.435C358.467 135.066 359.334 135.054 359.079 134.056C359.06 133.974 359.117 133.783 359.162 133.77C360.864 133.485 361.31 131.719 362.552 130.906C363.457 130.315 365.031 130.455 364.929 128.714C364.923 128.574 365.554 128.422 365.866 128.238C366.516 127.863 367.561 127.977 367.466 126.656C367.447 126.351 368.619 125.951 369.25 125.601C370.053 125.15 371.245 125.322 371.48 123.931C371.531 123.639 372.812 123.474 373.539 123.391C374.112 123.327 374.724 123.607 375.291 123.524C376.706 123.321 378.529 124.09 379.415 125.582C381.365 124.833 383.863 124.547 385.214 123.156C386.412 121.924 388.241 121.568 388.935 120.374C389.649 119.148 391.198 118.97 391.472 118.176C392.071 116.461 393.893 116.594 394.588 115.552C395.404 114.333 397.169 113.971 397.481 113.158C398.189 111.322 399.769 111.315 400.986 110.547C401.076 110.49 401.254 110.452 401.254 110.401C401.26 108.387 403.179 108.749 404.224 108.031C404.44 107.885 404.797 107.847 404.912 107.657C406.735 104.614 410.163 105.097 412.878 104.017C415.733 105.344 418.059 103.248 420.64 102.829C421.857 102.632 422.979 101.736 424.349 102.746C424.795 103.077 425.847 102.6 426.994 102.435C426.86 103.051 426.79 103.566 426.624 104.049C426.471 104.506 426.216 104.938 425.808 105.776C425.209 106.189 423.852 106.151 423.221 107.688C422.902 108.47 421.143 108.794 419.977 109.067C418.734 109.353 417.517 109.537 416.109 109.41C414.216 109.238 411.705 109.924 410.386 111.201C409.277 112.275 407.818 112.624 406.951 113.647C406.027 114.739 404.415 115.305 403.937 116.169C403.089 117.699 401.821 117.992 400.585 118.62C400.445 118.69 400.19 118.76 400.19 118.83C400.196 120.755 398.342 120.45 397.386 121.212C397.016 121.504 396.799 121.987 396.525 122.387C396.443 122.508 396.449 122.724 396.347 122.794C394.76 123.886 393.167 124.973 391.567 126.04C391.013 126.408 390.063 126.326 390.274 127.501C390.312 127.723 389.343 128.161 388.814 128.447C387.954 128.917 386.641 128.828 386.673 130.353C386.673 130.531 386.119 130.779 385.781 130.893C384.137 131.471 382.486 132.062 380.81 132.544C380.46 132.646 379.995 132.265 379.561 132.201C378.694 132.081 377.815 132.03 377.108 131.966C376.133 131.401 375.24 130.893 374.163 130.27C373.526 130.69 371.927 130.251 372.08 132.081C372.092 132.227 371.627 132.43 371.366 132.583C370.601 133.04 369.256 132.919 369.53 134.444C369.55 134.539 369.014 134.704 368.772 134.888C368.16 135.365 366.879 135.219 367.198 136.629C367.236 136.788 366.357 137.099 365.968 137.417C365.49 137.804 365.082 138.274 364.776 138.871C364.209 139.875 362.208 139.417 362.661 141.355C361.698 142.022 360.124 141.869 360.086 143.667C360.08 144.029 358.773 144.366 358.002 144.747C358.442 146.703 356.447 146.214 355.587 147.161C355.612 147.396 355.651 147.796 355.695 148.203C354.937 148.552 354.223 148.889 353.509 149.219L353.764 149.543C353.229 150.038 352.751 150.616 352.152 151.01C351.566 151.391 350.769 151.423 350.935 152.516C350.973 152.757 350.004 153.195 349.469 153.481C348.57 153.97 347.595 154.053 346.99 155.304C346.614 156.073 344.785 156.308 343.574 156.435C342.555 156.543 341.478 156.143 340.171 155.927C339.859 155.774 339.254 155.476 338.642 155.177C337.832 154.79 337.284 152.001 337.832 151.258C338.011 151.01 338.068 150.648 338.113 150.33C338.145 150.083 337.953 149.714 338.068 149.587C339.26 148.266 339.738 146.773 339.814 144.976C339.853 144.08 340.872 143.254 341.299 142.333C341.752 141.355 342.019 140.294 342.37 139.265C342.223 139.17 342.083 139.074 341.936 138.979C341.184 139.29 340.432 139.608 339.68 139.919C339.77 140.021 339.859 140.129 339.948 140.231C339.515 140.72 339.075 141.202 338.661 141.704C337.73 142.816 336.813 143.94 336.054 145.173C335.462 146.017 333.614 145.763 334.149 147.453C333.021 148.609 331.989 149.664 330.963 150.712C330.994 150.762 331.026 150.813 331.058 150.858C330.682 151.29 330.332 151.747 329.917 152.141C329.414 152.617 328.681 152.617 328.56 153.754C328.458 154.701 327.209 155.577 326.361 156.365C325.877 156.816 325.533 157.127 325.278 157.851C324.928 158.868 323.831 159.617 323.086 160.507C322.735 160.926 322.461 161.415 322.136 161.86C321.499 162.73 320.862 163.594 320.205 164.445C319.498 165.366 318.765 166.268 318.141 167.265C317.064 168.618 315.993 169.971 314.916 171.331C314.878 171.299 314.839 171.261 314.795 171.229C314.285 172.144 313.782 173.059 313.272 173.973C313.208 173.922 313.138 173.872 313.074 173.827C312.01 175.193 310.946 176.559 309.881 177.924C308.804 179.315 307.727 180.707 306.657 182.091C306.657 182.091 306.67 182.091 306.676 182.098C305.612 183.444 304.547 184.791 303.483 186.138C303.585 186.214 303.687 186.29 303.789 186.366C302.814 187.408 301.839 188.45 300.603 189.771C300.596 189.708 300.647 190.101 300.686 190.387C299.64 191.499 298.653 192.553 297.665 193.608L297.302 193.424C297.353 193.817 297.404 194.218 297.442 194.491C296.378 195.628 295.371 196.714 294.134 198.042C293.612 199.42 292.828 201.014 291.165 201.904C290.827 202.367 290.349 202.787 290.183 203.301C289.75 204.654 288.698 205.283 287.57 205.925C287.443 205.995 287.621 206.617 287.634 206.725C286.29 208.18 285.091 209.482 283.893 210.778C284.002 210.879 284.116 210.975 284.225 211.076C283.473 211.451 282.721 211.82 281.937 212.207C281.982 212.62 282.02 213.02 282.052 213.287C281.261 214.138 279.471 213.744 279.764 215.561C279.783 215.675 279.279 215.91 278.999 216.037C278.247 216.393 277.368 216.577 277.457 217.74C277.47 217.918 276.934 218.146 276.635 218.337C275.991 218.756 274.908 218.762 275.137 220.014C275.163 220.147 274.589 220.389 274.296 220.579C273.582 221.036 272.301 220.916 272.512 222.358C272.531 222.504 271.976 222.796 271.651 222.929C270.619 223.349 269.574 223.723 268.535 224.117C268.242 224.232 267.777 224.289 267.687 224.498C266.521 227.281 263.641 227.128 261.551 227.357C260.085 227.516 258.409 227.478 256.822 227.598C255.993 227.662 255.917 225.674 254.783 226.855C253.827 226.036 254.037 224.244 252.285 224.549C252.214 224.562 252.055 224.333 252.01 224.2C251.322 221.932 250.341 219.69 250.105 217.378C249.99 216.26 250.653 214.977 250.092 213.738C249.92 213.357 249.837 212.88 249.557 212.614C249.391 212.455 248.697 212.499 248.62 212.652C247.83 214.163 247.193 215.758 245.402 216.463C245.173 216.552 245.173 217.232 245.02 217.81C244.58 218.013 243.949 218.267 243.35 218.585C243.114 218.712 242.764 219.048 242.802 219.188C243.095 220.128 242.381 220.217 241.827 220.484C241.151 220.808 240.259 220.929 240.431 222.072C240.457 222.237 239.807 222.504 239.475 222.733C238.87 223.152 237.697 223.044 238.035 224.378C238.073 224.53 237.245 224.93 236.799 225.172C235.843 225.686 234.587 225.686 234.256 227.185C234.16 227.611 232.899 227.776 232.605 227.891C231.573 227.516 230.923 227.281 229.954 226.931C229.648 226.703 229.018 226.226 228.208 225.623C229.355 225.115 228.533 223.743 229.374 222.605C230.101 221.621 231.63 221.068 231.65 220.497C231.726 218.432 234.702 219.004 234.587 216.895C234.568 216.596 235.913 216.228 236.729 215.84C236.697 215.497 236.652 215.104 236.608 214.64C236.811 214.532 237.06 214.443 237.264 214.29C237.92 213.82 238.959 214.024 239.01 212.537C239.042 211.648 240.52 210.816 241.317 209.933C241.68 209.533 241.973 209.075 242.279 208.631C242.388 208.472 242.4 208.231 242.534 208.11C243.496 207.221 244.522 206.401 245.421 205.455C245.67 205.194 245.561 204.591 245.925 204.407C247.021 203.054 248.123 201.707 249.219 200.354C249.098 200.259 248.977 200.157 248.856 200.062C249.621 199.376 251.195 199.471 250.984 197.8C250.959 197.61 251.724 197.324 252.125 197.082C252.004 196.987 251.877 196.892 251.756 196.797C252.839 195.437 253.922 194.072 255.356 192.274C255.516 191.524 255.815 190.127 256.108 188.729C256.159 188.742 256.217 188.755 256.267 188.767C256.918 186.424 257.574 184.08 258.224 181.736C258.3 181.742 258.377 181.748 258.453 181.755C258.613 181.196 258.594 180.325 258.95 180.129C260.626 179.227 259.065 177.245 260.474 176.146C261.124 175.638 260.99 174.221 261.404 173.3C261.863 172.265 262.538 171.318 263.265 170.086C263.303 169.406 262.678 168.421 263.826 167.431C264.476 166.872 264.202 165.366 264.731 164.528C265.164 163.829 265.559 163.264 265.75 162.4C265.954 161.479 266.821 160.704 267.394 159.865C267.42 159.827 267.407 159.763 267.42 159.713C267.636 158.423 267.758 157.115 268.102 155.863C268.267 155.247 268.841 154.745 269.064 154.434C269.402 153.373 269.516 152.725 269.81 152.173C270.281 151.309 270.887 150.521 271.416 149.689C271.874 148.965 272.129 148.139 272.594 147.389C273.232 146.367 273.468 145.084 274.328 144.048C274.908 143.343 274.991 142.238 275.354 141.336C275.692 140.497 276.049 139.652 276.495 138.865C277.087 137.804 277.858 136.915 278.107 135.6C278.362 134.266 279.311 133.078 279.847 131.789C280.242 130.848 280.35 129.781 280.79 128.867C281.217 127.971 281.931 127.221 282.466 126.37C282.861 125.748 283.218 125.087 283.511 124.407C284.187 122.845 284.715 121.212 285.48 119.7C286.226 118.22 287.239 116.867 288.055 115.419C288.845 114.002 289.533 112.522 290.272 111.074C290.457 110.718 290.642 110.35 290.903 110.051C291.866 108.921 292.63 107.733 293.07 106.253C293.344 105.332 294.319 104.639 294.874 103.782C295.23 103.229 294.682 102.429 295.715 101.882C296.371 101.539 296.48 100.167 296.83 99.2527C296.9 99.0621 296.881 98.8271 296.989 98.6683C297.257 98.2872 298.551 95.6447 298.748 95.4541C299.405 94.8189 299.857 94.1519 300.036 93.2181C300.138 92.6973 300.692 92.2653 300.972 91.8905C301.438 91.0203 301.705 90.3088 302.151 89.7371C302.942 88.7208 303.968 87.8696 304.662 86.8024C305.198 85.983 305.28 84.8904 305.746 84.0075C306.204 83.1372 306.899 82.3877 307.453 81.5619C308.244 80.3994 308.983 79.2052 309.78 78.0491C310.385 77.1725 311.118 76.3785 311.647 75.4702C312.144 74.6253 312.348 73.6026 312.87 72.7768C313.539 71.7097 314.4 70.7696 315.164 69.7596C315.432 69.4102 315.693 69.0545 315.897 68.6733C316.324 67.8666 316.496 66.7232 317.159 66.2913C318.313 65.5354 318.243 63.7187 319.95 63.4392C320.352 63.3756 320.569 62.156 320.894 61.4255C321.276 60.93 321.862 60.5108 321.881 60.0661C321.964 58.3511 324.233 58.3257 324.386 56.5153C324.462 55.6323 325.692 54.8256 326.432 54.0189C326.865 53.5425 327.515 53.4917 327.617 52.4563C327.706 51.5161 328.987 50.7094 329.694 49.8137C330.555 48.7275 331.364 47.6032 331.989 46.3391C333.123 45.0179 334.257 43.6966 335.385 42.3754C335.334 42.3309 335.277 42.2864 335.226 42.2356C336.367 40.9207 337.514 39.6058 338.654 38.2909C338.623 38.2528 338.591 38.221 338.559 38.1829C338.941 37.643 339.285 37.0649 339.719 36.5631C340.088 36.1375 340.687 35.8771 340.974 35.4134C341.713 34.2319 342.631 33.2918 343.874 32.6438C344.001 32.574 343.855 31.9832 343.835 31.6338C344.874 31.0558 345.76 30.681 346.378 29.3915C346.818 28.4641 347.455 26.6474 349.259 26.5585C349.393 26.5521 349.482 25.6946 349.609 25.1864C350.368 24.5512 352.088 24.7862 351.801 22.9822C351.789 22.8869 352.35 22.7535 352.585 22.5629C353.152 22.1056 354.421 22.2199 353.981 20.8923C353.949 20.797 354.3 20.5239 354.516 20.4096C355.364 19.9713 356.524 19.8506 356.339 18.434C356.326 18.3133 356.849 18.1355 357.116 17.9767C357.518 17.7353 358.212 17.532 358.263 17.2271C358.448 16.1028 359.36 15.8614 360.086 15.3151C360.742 14.8133 361.138 13.9812 361.794 13.4666C362.444 12.9585 363.578 12.9966 363.374 11.6817C363.349 11.5229 364.171 11.2942 364.521 11.0083C365.063 10.5637 365.541 10.0365 365.923 9.39489C366.752 8.58816 368.313 8.74697 368.536 7.06364C368.581 6.74603 369.384 6.52371 369.843 6.26327C370.665 5.79956 371.939 5.97107 371.946 4.39573C371.946 4.05271 373.265 3.73511 373.953 3.36033C374.616 2.99825 375.738 3.11895 375.578 1.81675C375.559 1.64524 376.069 1.32763 376.381 1.21329C377.324 0.863925 378.274 0.520908 379.249 0.285878C379.88 0.133426 380.638 -0.444622 381.161 0.597134C381.237 0.749586 381.849 0.711473 382.187 0.641599C383.614 0.336695 384.373 1.04179 384.78 2.28681C385.437 4.28139 386.074 6.28868 386.73 8.32137C386.253 8.60087 385.908 8.81049 385.481 9.05822C386.533 10.9385 385.214 12.3741 384.685 13.9875C384.43 14.7752 384.532 15.6835 384.264 16.4267C384.009 17.0747 383.761 17.7289 383.506 18.3769C383.449 18.3769 383.391 18.3769 383.34 18.3769C383.194 18.9295 383.219 19.6854 382.856 20.003C382.098 20.67 382.021 21.5466 381.683 22.366C381.244 23.4395 380.67 24.4686 380.116 25.4913C379.644 26.3615 379.109 27.2 378.624 28.0639C378.185 28.8579 377.777 29.671 377.35 30.4714C376.783 31.5259 376.19 32.5613 375.648 33.6284C375.304 34.3081 375.043 35.0259 374.718 35.8009C374.399 36.2836 374.042 36.7156 373.8 37.2047C373.373 38.0813 373.01 38.9897 372.628 39.8853C372.519 40.1394 372.443 40.4252 372.303 40.6603C372.016 41.124 371.691 41.5623 371.289 42.1467C371.111 42.6676 371.015 43.2837 370.722 43.7728C370.193 44.6431 369.486 45.4053 368.957 46.2692C368.434 47.1268 368.033 48.0542 367.574 48.9499C367.447 49.1976 367.357 49.4898 367.16 49.6804C366.529 50.2965 365.331 50.3664 365.56 51.802C365.63 52.2403 363.725 52.3673 364.566 53.282C364.063 54.1078 363.706 54.6986 363.298 55.3655C363.062 55.8737 362.82 56.4327 362.552 56.9726C362.469 57.1442 362.361 57.3474 362.202 57.4427C361.354 57.9509 360.264 58.2367 360.481 59.6342C360.507 59.7803 359.806 60.0344 359.583 60.3393C358.429 62.4736 357.703 64.8938 355.651 66.3866C355.281 66.9773 354.911 67.5744 354.542 68.1652C354.554 68.1842 354.561 68.2033 354.574 68.2287C354.255 68.6733 353.669 69.118 353.656 69.569C353.611 71.3095 351.222 71.3349 351.209 73.1516C351.209 73.736 350.361 74.3141 349.915 75.0319C349.641 75.54 349.361 76.0419 349.093 76.55C349.004 76.7279 348.985 76.9629 348.857 77.09C347.959 77.992 346.894 78.7669 346.181 79.7896C345.747 80.4058 345.206 81.2506 345.059 81.7715C344.728 82.9213 344.084 83.3405 343.211 83.8106C342.478 84.2108 343.198 85.6845 341.873 85.7162C342.109 86.8151 340.745 87.2661 340.726 87.8569C340.681 88.9622 339.853 89.0511 339.381 89.5847C339.113 89.8896 338.89 90.2326 338.654 90.5693C338.017 91.4903 337.514 92.5575 336.717 93.3071C335.64 94.3171 334.863 95.4096 334.436 96.8262C334.315 97.22 333.703 97.4614 333.231 97.8425C333.996 99.3162 332.263 99.1066 331.765 99.8053C331.268 100.504 330.835 101.247 330.402 102.067C330.077 102.499 329.529 102.905 329.471 103.375C329.261 105.014 327.05 105.103 326.935 106.952C326.884 107.777 325.762 108.565 325.055 109.308C324.545 109.842 323.621 109.791 323.691 111.087C323.736 111.868 322.442 112.694 321.805 113.539C321.174 114.377 320.62 115.26 319.88 116.073C319.472 116.6 318.708 117.14 318.727 117.649C318.81 119.484 316.458 119.421 316.254 121.155C316.152 122.051 314.546 122.743 314.342 123.677C314.043 125.106 313.106 125.513 312.45 125.824C311.812 127.088 311.347 128.003 310.888 128.917C310.927 128.955 310.965 128.987 311.003 129.025C310.041 130.073 309.085 131.115 308.205 132.074C307.823 132.748 307.479 133.357 307.135 133.967C306.217 135.454 305.733 137.213 303.674 137.887C303.719 138.261 303.764 138.662 303.815 139.125C303.432 139.322 303.024 139.538 302.61 139.754C302.725 139.849 302.84 139.945 302.954 140.046C301.82 141.349 300.686 142.657 299.551 143.959C299.615 144.016 299.679 144.067 299.742 144.124C299.411 144.575 298.793 145.026 298.793 145.477C298.793 147.288 296.397 147.205 296.225 149.016C296.142 149.892 294.969 150.654 294.338 151.506C293.695 152.376 293.108 153.291 292.439 154.167C290.598 156.714 288.756 159.255 286.914 161.803C286.959 161.847 287.003 161.891 287.042 161.942C286.704 162.387 286.417 162.889 286.016 163.264C285.467 163.778 284.524 163.829 284.69 165.055C284.754 165.55 283.842 166.179 283.6 166.98C282.657 168.021 281.714 169.057 280.771 170.098C280.656 170.035 280.541 169.971 280.427 169.914C280.465 170.308 280.503 170.708 280.541 171.178C280.146 171.369 279.726 171.566 279.311 171.769C279.42 171.89 279.528 172.01 279.636 172.125C279.248 172.563 278.897 173.052 278.451 173.421C277.361 174.316 276.667 175.428 276.284 176.781C276.068 177.55 275.316 178.191 274.914 178.661C274.105 179.608 273.104 180.452 272.41 181.564C271.893 182.39 271.358 183.197 270.81 184.003C270.479 184.486 270.109 184.943 269.778 185.42C269.465 185.865 269.166 186.322 268.873 186.779C268.739 186.983 268.65 187.211 268.503 187.402C268.159 187.846 267.796 188.272 267.566 188.812C265.986 189.708 265.043 191.092 264.629 192.877C264.463 193.595 263.156 193.258 263.335 194.548C263.437 195.291 262.449 196.174 261.997 197.013C261.85 197.286 261.818 197.635 261.767 197.953C261.716 198.245 261.799 198.759 261.672 198.81C260.531 199.268 261.2 200.125 261.143 200.83C261.098 201.396 260.939 201.955 260.601 202.495C260.308 203.543 261.378 204.781 259.9 205.677C259.785 205.747 259.976 206.268 259.989 206.579C260.008 207.322 260.735 208.256 259.447 208.669C259.409 208.682 259.346 208.764 259.358 208.79C259.976 210.263 259.288 211.661 259.173 213.096C259.072 214.373 260.423 215.644 259.129 217.047C258.957 217.232 258.702 219.277 260.524 219.169C260.843 219.15 261.187 219.601 261.812 220.033C262.513 219.785 263.647 219.398 264.775 218.978C264.998 218.896 265.361 218.705 265.361 218.559C265.4 217.092 266.738 217.206 267.56 216.685C268.178 216.298 269.274 216.488 269.128 215.091C269.089 214.722 270.498 214.195 271.04 213.547C271.492 213.058 271.893 212.512 272.41 212.105C272.97 211.667 273.831 211.699 273.729 210.505C273.697 210.123 275.105 209.622 275.966 209.107C275.927 208.84 275.876 208.44 275.825 208.034C276.609 207.652 277.368 207.29 278.12 206.928C278.024 206.846 277.935 206.757 277.839 206.674C278.177 206.23 278.502 205.766 278.859 205.34C279.859 204.159 280.879 202.99 281.771 201.713C282.402 200.957 283.919 201.072 283.728 199.439C283.702 199.236 284.441 198.95 284.575 198.461C284.964 198.01 285.315 197.521 285.741 197.114C286.251 196.631 287.277 196.581 286.952 195.418C286.901 195.247 287.698 194.84 288.157 194.497C288.112 194.199 288.055 193.843 287.991 193.455C288.749 193.068 289.495 192.68 290.234 192.299C290.132 192.223 290.024 192.14 289.922 192.064C290.317 191.493 290.712 190.915 291.101 190.343C291.095 190.317 291.088 190.286 291.075 190.26C291.464 189.797 291.827 189.295 292.261 188.869C292.745 188.386 293.739 188.463 293.523 187.205C293.44 186.735 294.969 186.246 294.784 185.121C296.511 185.026 296.378 182.974 297.659 182.409C297.257 180.44 300.297 180.77 300.08 178.788C300.029 178.331 300.921 177.772 301.24 177.111C301.954 176.368 303.413 176.374 303.241 174.716C303.222 174.52 303.98 174.24 304.375 173.999C304.261 173.878 304.152 173.764 304.038 173.643C304.42 173.224 304.745 172.728 305.191 172.404C306.338 171.553 307.046 170.448 307.434 169.101C307.504 168.853 307.759 168.65 307.97 168.466C308.161 168.301 308.607 168.155 308.594 168.059C308.339 166.471 309.78 166.471 310.366 165.696C310.774 165.188 311.551 164.648 311.519 164.166C311.398 162.266 313.96 162.457 314.062 160.545C314.113 159.624 315.725 158.849 316.49 157.896C317.172 157.051 317.682 156.054 318.249 155.114C318.37 154.91 318.357 154.536 318.517 154.459C319.485 153.97 320.288 153.653 320.651 152.255C320.957 151.067 322.506 150.203 323.424 149.117C323.761 148.679 324.086 148.241 324.43 147.809C325.38 146.614 326.342 145.42 327.642 143.8C328.828 143.33 329.733 141.908 330.376 140.211C330.523 139.818 331.198 139.646 331.587 139.322C332.033 138.947 332.428 138.509 332.658 137.906C334.442 137.112 335.296 135.524 336.023 133.821C336.042 133.77 336.054 133.688 336.086 133.681C337.756 133.3 338.1 131.452 339.445 130.683C339.974 130.378 340.35 129.807 340.789 129.356C340.713 129.235 340.63 129.108 340.554 128.987C341.318 128.638 342.089 128.288 342.854 127.939L342.593 127.628L342.676 127.609ZM353.465 61.1524C353.949 60.4981 354.268 60.0662 354.574 59.6279C354.88 59.1896 355.147 58.7258 355.472 58.3002C356.192 57.3538 357.021 56.4772 357.633 55.4672C358.161 54.6033 358.308 53.4917 358.888 52.6786C359.614 51.6495 360.66 50.8491 361.475 49.8773C361.985 49.2738 362.501 48.5751 362.699 47.8382C363.03 46.5868 363.578 45.5197 364.451 44.5796C364.604 44.4144 364.515 44.0396 364.585 43.7728C364.655 43.506 364.757 43.2456 364.897 43.0106C365.178 42.5469 365.497 42.1022 365.802 41.6512C365.694 41.5623 365.586 41.467 365.471 41.3781C365.872 41.1748 366.274 40.9715 366.675 40.7683L366.35 40.4951C366.688 39.9425 367.026 39.3898 367.37 38.8372C367.593 38.31 367.937 37.878 368.218 37.4016C368.683 36.6266 369.142 35.8453 369.53 35.0322C369.983 34.0985 370.302 33.1012 370.786 32.1928C371.245 31.3289 371.895 30.573 372.373 29.7155C372.749 29.0422 372.984 28.2862 373.29 27.5684C373.673 26.6601 374.023 25.739 374.469 24.8624C374.915 23.9858 375.655 23.2109 375.922 22.2898C376.286 21.0575 376.572 19.8633 377.541 18.9358C377.7 18.7834 377.592 18.3769 377.656 18.091C377.713 17.8179 377.809 17.5511 377.917 17.2906C378.395 16.1155 378.937 14.9594 379.351 13.7652C379.714 12.7171 379.638 11.3005 380.326 10.6336C381.078 9.90942 380.766 9.40124 380.785 8.72156C380.804 8.04823 381.001 7.38125 381.122 6.71427C380.848 4.71334 379.198 3.89391 378.535 5.24692C377.509 7.34949 375.463 7.12081 373.966 8.06093C373.698 8.22609 373.157 8.34043 373.157 8.48018C373.157 10.1635 371.646 10.0936 370.69 10.678C370.314 10.9067 369.983 11.237 369.664 11.5483C369.237 11.9612 368.849 12.4122 368.441 12.8441C367.963 13.3459 367.478 13.8478 366.994 14.3559C366.497 15.3786 365.019 15.0102 364.783 16.7888C364.681 17.5638 362.629 17.875 362.1 19.4059C361.883 20.0411 360.685 20.2889 360.124 21.3497C359.659 22.2263 358.263 22.8424 357.511 23.9731C356.798 25.053 355.032 25.6437 354.714 26.73C354.293 28.1592 353.254 28.318 352.522 29.093C352.171 29.7409 351.687 30.2427 351.183 30.7128C350.858 31.0113 350.431 31.2273 350.183 31.5767C349.82 32.0785 349.571 32.6692 349.074 33.5903C349.412 34.8734 347.608 34.6511 347.156 35.6039C346.761 36.1756 346.359 36.7473 345.773 37.5985C346.066 38.9071 344.352 38.78 343.727 39.3517C343.173 41.3781 342.21 42.8073 340.184 43.6013C341.063 44.8527 339.247 44.9925 339.266 45.507C339.343 47.419 336.545 47.1395 336.762 49.0896C336.806 49.5215 336.074 50.0361 335.698 50.5125C335.175 51.3573 333.875 51.3065 333.767 52.8818C333.735 53.3011 333.11 54.5652 332.619 54.9018C331.485 55.6768 331.555 57.5761 329.847 57.6904C329.771 57.6904 329.707 57.9255 329.65 58.0589C329.414 58.6115 329.178 59.1641 328.898 59.8184C328.56 60.2821 328.26 60.7077 327.942 61.127C327.821 61.2858 327.521 61.4319 327.54 61.5589C327.744 63.3883 325.151 63.382 325.189 65.1606C325.195 65.5671 324.596 65.9927 324.271 66.412C323.755 67.5236 322.557 68.4002 322.436 69.3975C322.238 71.0872 319.887 71.0236 320.097 72.8658C320.148 73.2914 319.447 73.8059 319.09 74.276C318.497 75.4575 317.841 76.531 317.229 77.6299C316.586 78.7733 315.19 79.2497 314.827 80.7298C314.546 81.8604 313.661 82.845 312.883 84.1599C311.793 84.0011 312.533 85.3732 312.093 85.9894C311.341 87.0248 310.353 87.8887 309.531 88.8732C309.085 89.4132 308.467 90.0484 308.454 90.6582C308.428 91.6936 307.727 92.1383 307.243 92.8243C306.925 93.2753 306.867 93.9105 306.695 94.4632C306.657 94.4822 306.612 94.4949 306.574 94.514C306.249 95.1238 305.918 95.7336 305.593 96.3434C305.35 96.6801 305.395 97.436 305.153 97.544C304.496 97.8362 304.191 98.0839 304.509 98.8144C304.567 98.9478 304.318 99.2336 304.184 99.4305C303.885 99.8752 303.56 100.307 303.247 100.739C302.789 101.832 302.088 102.727 301.501 103.693C301.113 104.334 300.89 105.071 300.584 105.757C300.182 106.672 299.832 107.625 299.341 108.495C298.869 109.34 298.143 110.045 297.722 110.909C297.276 111.824 297.168 112.897 296.728 113.812C295.868 115.578 294.867 117.28 293.943 119.014C293.554 119.738 293.223 120.494 292.86 121.225C292.318 122.298 291.866 123.442 291.19 124.426C290.693 125.144 290.33 125.779 290.132 126.681C289.941 127.552 288.507 128.301 288.565 129.032C288.654 130.156 287.743 130.486 287.519 131.274C287.245 132.233 287.112 133.351 286.513 134.069C285.684 135.066 285.276 136.152 284.881 137.328C284.594 138.185 284.072 138.973 283.607 139.76C283.11 140.612 282.466 141.393 282.058 142.282C281.65 143.184 281.746 144.614 281.102 145.052C279.605 146.062 280.93 147.929 279.496 148.952C278.891 149.384 279.235 151.105 278.629 151.563C277.737 152.242 277.916 153.119 277.533 153.862C276.998 154.891 276.52 155.952 276.004 157C275.583 157.851 275.15 158.703 274.736 159.554C274.57 159.903 274.392 160.253 274.29 160.627C273.946 161.847 273.722 163.117 273.27 164.293C272.888 165.284 272.206 166.16 271.728 167.126C271.161 168.288 270.676 169.489 270.026 170.962C270.045 171.051 270.077 171.54 270.262 171.96C270.377 172.22 270.734 172.373 270.982 172.569C271.148 172.322 271.307 172.068 271.473 171.82C271.772 171.375 272.072 170.931 272.371 170.486C272.945 169.412 273.353 167.754 274.245 167.431C275.8 166.865 275.443 165.017 276.807 164.578C276.45 162.622 279.158 162.793 279.279 160.951C279.337 160.1 280.917 159.389 281.07 158.493C281.351 156.797 283.479 156.657 283.613 154.955C283.651 154.472 284.206 154.034 284.62 153.43C285.48 152.49 286.462 151.41 287.494 150.273C287.449 150.032 287.392 149.676 287.335 149.359C287.8 149.028 288.596 148.622 288.552 148.463C288.24 147.402 289.164 147.301 289.635 146.837C290.081 146.398 290.457 145.89 290.872 145.414C290.865 145.369 290.852 145.331 290.846 145.287C291.222 144.69 291.604 144.093 291.751 143.858C292.994 142.428 294.109 141.387 294.912 140.135C295.447 139.303 296.384 137.289 296.907 136.953C297.525 136.559 298.238 136.47 298.143 135.289C298.086 134.583 299.003 133.281 299.691 133.122C301.329 132.735 300.985 130.747 302.381 130.34C301.947 128.403 304.783 128.574 304.707 126.751C304.688 126.281 305.44 125.779 305.841 125.29C305.969 124.801 306.727 124.515 306.701 124.337C306.478 122.66 308.097 122.794 308.843 122.063C308.792 121.689 308.741 121.288 308.69 120.92C309.155 120.704 309.537 120.532 309.958 120.336C309.397 118.455 311.283 118.754 312.061 117.896C312.016 117.598 311.953 117.204 311.902 116.855C312.367 116.575 313.125 116.296 313.1 116.111C312.889 114.422 314.521 114.574 315.094 113.748C315.719 112.586 316.465 111.506 317.299 110.49C318.07 109.556 319.428 108.787 319.625 107.777C319.817 106.767 320.397 106.596 320.913 106.107C321.333 105.706 321.677 105.224 322.053 104.773C321.945 104.665 321.843 104.557 321.735 104.455C322.149 104.245 322.57 104.042 322.946 103.852C322.92 103.394 322.895 102.994 322.876 102.6C323.035 102.689 323.201 102.785 323.36 102.873C324.386 101.52 325.412 100.174 326.884 98.23C328.006 97.8362 328.738 96.2164 329.35 94.3171C329.58 94.19 330.262 93.9804 330.255 93.8025C330.179 92.4114 331.237 92.151 332.142 91.6809C332.314 91.592 332.371 91.268 332.473 91.0457C332.906 90.15 333.123 88.7271 333.805 88.454C336.067 87.5393 335.965 84.846 337.794 83.728C337.412 81.7715 340.452 82.051 340.197 80.0691C340.146 79.6499 340.859 79.1354 341.216 78.659C341.293 78.2143 341.994 77.9729 341.975 77.8205C341.815 76.4103 342.943 76.1753 343.785 75.6607C343.937 75.5718 344.039 75.3749 344.122 75.2034C344.377 74.6507 344.613 74.0917 344.855 73.5328C345.786 71.9447 346.302 70.1598 347.876 69.696C348.532 68.4637 348.991 67.5998 349.45 66.7423C350.425 64.4809 353.089 63.3883 353.446 61.127L353.465 61.1524Z" fill="white"/>
<path d="M34.4129 294.08C34.655 294.995 34.9036 295.801 35.0756 296.627C35.2158 297.301 35.6109 298.025 34.6104 298.533C34.381 298.647 34.5021 299.467 34.4447 300.159C31.9402 300.972 29.3465 301.811 26.3768 302.776C25.5165 300.019 24.1209 297.51 24.1846 295.046C24.2292 293.407 24.1463 291.844 23.987 290.237C23.936 289.722 24.637 289.17 24.688 288.604C24.7454 288.007 24.4331 287.379 24.2611 286.673C24.5797 286.457 24.9111 286.235 25.2488 286.006C25.3699 284.882 24.0635 283.694 25.5101 282.57C25.765 282.367 25.3317 281.299 25.2361 280.626C25.115 279.75 24.5797 278.746 25.8861 278.377C25.8989 277.152 24.6817 275.919 26.2302 274.916C26.3449 274.839 26.1028 274.242 26.0518 273.88C25.8861 272.788 25.2488 271.695 26.3131 270.628C26.5361 270.406 26.2239 269.637 26.141 269.122C26.0136 268.354 25.5292 267.458 26.8356 267.426C26.8994 266.105 25.6758 264.924 27.0842 263.793C27.3072 263.615 26.944 262.713 26.8675 262.148C26.7401 261.239 25.9626 260.267 27.1861 259.48C27.3327 259.384 27.167 258.794 27.1288 258.432C27.0013 257.193 26.0391 256.056 27.1861 254.658C27.594 254.163 26.8484 252.785 26.7337 251.794C26.6891 251.432 26.9758 251.044 27.0396 250.65C27.1224 250.129 27.1925 249.596 27.1607 249.075C27.1097 247.976 25.9817 246.839 27.4092 245.784C27.5876 245.651 27.2562 244.819 27.1543 244.311C26.9504 243.313 26.3896 242.329 27.3837 241.357C27.6131 241.135 27.3582 240.385 27.269 239.883C27.0842 238.791 26.3258 237.654 27.5303 236.675C27.5621 236.65 27.594 236.555 27.5749 236.529C26.2812 234.706 28.1994 232.807 27.4283 230.933C27.1607 230.285 26.7719 229.485 27.868 228.792C28.4671 228.411 28.5117 227.204 28.8749 226.404C29.0725 225.966 29.3529 225.515 29.7161 225.223C30.3215 224.74 31.2456 224.759 31.4559 223.628C31.5196 223.298 32.979 223.152 33.8138 223.063C34.2727 223.012 34.7634 223.266 35.2349 223.38C35.8786 223.539 36.9365 223.533 37.0767 223.889C37.5036 224.962 37.5801 226.182 37.7522 227.344C37.7777 227.497 37.4144 227.757 37.4654 227.852C38.6125 230.19 37.1914 232.667 37.8669 235.043C38.0007 235.507 37.6183 236.097 37.5737 236.637C37.5228 237.285 37.5291 237.952 37.612 238.6C37.7394 239.559 38.5105 240.487 37.3571 241.44C37.0894 241.662 37.561 242.71 37.6056 243.383C37.6566 244.196 38.6507 245.168 37.236 245.804C37.1213 245.854 37.2551 246.471 37.2806 246.82C37.3762 248.059 38.5806 249.335 37.0703 250.542C36.9046 250.676 37.2551 251.419 37.3125 251.883C37.4527 252.931 38.4468 254.055 37.0321 255.008C36.911 255.09 37.1595 255.681 37.2041 256.037C37.3061 256.85 38.0581 257.733 36.8791 258.419C36.7325 258.502 36.8919 259.092 36.8919 259.442C36.8919 260.68 38.0708 261.951 36.6816 263.202C36.4458 263.418 36.9301 264.377 37.0066 265.006C37.1022 265.775 37.6502 266.632 36.6115 267.248C36.4776 267.325 36.5477 267.801 36.5732 268.093C36.6561 269.008 37.4463 270.024 36.1462 270.749C36.0443 270.806 36.21 271.32 36.2355 271.625C36.3056 272.483 37.0575 273.429 35.8531 274.141C35.7065 274.23 35.8595 274.827 35.8722 275.189C35.9104 276.313 37.0384 277.533 35.5281 278.543C35.3879 278.638 35.6492 279.318 35.7129 279.73C35.8276 280.442 36.4967 281.274 35.2604 281.693C35.1712 281.725 35.1011 281.966 35.1011 282.106C35.1393 284.342 35.1903 286.578 35.2413 289.017C34.2981 289.348 34.655 290.231 34.8462 291.171C35.0501 292.193 36.0889 293.394 34.4129 294.105V294.08Z" fill="white"/>
</g>
<defs>
<clipPath id="clip0_74_2521">
<rect width="427" height="347" fill="white"/>
</clipPath>
</defs>
</svg>
